<svg xmlns="http://www.w3.org/2000/svg" width="24" height="24" viewBox="0 0 24 24"><defs><style>.a{fill:#1a171b}</style></defs><title>chocolate-white-24-barcode</title><path class="a" d="M5.5 15.5V15H5V5v10.5h1v-11a.5.5 0 0 0-.5-.5h-1a.5.5 0 0 0-.5.5v11a.5.5 0 0 0 .5.5h1a.5.5 0 0 0 .5-.5zM8.5 15.5H9v-11a.5.5 0 1 0-1 0v11a.5.5 0 0 0 1 0v-11a.5.5 0 1 0-1 0v11a.5.5 0 0 0 1 0zM10.5 15.5h.5v-11a.5.5 0 1 0-1 0v11a.5.5 0 0 0 1 0v-11a.5.5 0 1 0-1 0v11a.5.5 0 0 0 1 0zM14.5 15.5V15H14V5v10.5h1v-11a.5.5 0 0 0-.5-.5h-1a.5.5 0 0 0-.5.5v11a.5.5 0 0 0 .5.5h1a.5.5 0 0 0 .5-.5zM19.5 15.5V15H19V5v10.5h1v-11a.5.5 0 0 0-.5-.5h-1a.5.5 0 0 0-.5.5v11a.5.5 0 0 0 .5.5h1a.5.5 0 0 0 .5-.5zM16.5 15.5h.5v-11a.5.5 0 1 0-1 0v11a.5.5 0 0 0 1 0v-11a.5.5 0 1 0-1 0v11a.5.5 0 0 0 1 0z"/><path d="M19.31 18.83a.67.67 0 0 0-.4-.67.63.63 0 0 0 .36-.61.78.78 0 0 0-.83-.79.79.79 0 0 0-.83.78H18a.42.42 0 1 1 .85 0 .39.39 0 0 1-.43.43h-.07v.36h.07a.43.43 0 0 1 .48.47.44.44 0 0 1-.46.47.43.43 0 0 1-.46-.43h-.41a.79.79 0 0 0 .87.8.8.8 0 0 0 .87-.81zm-2.45-.64a1.37 1.37 0 0 1-.15.86.61.61 0 0 1-.48.19h-.53v-2.07h.52a.61.61 0 0 1 .48.19c.15.16.16.43.16.82zm.43 0A1.47 1.47 0 0 0 17 17a1 1 0 0 0-.74-.27h-1v2.85h1a1 1 0 0 0 .74-.27 1.57 1.57 0 0 0 .29-1.13zm-2.89.64a.42.42 0 1 1-.83 0v-1.25a.42.42 0 1 1 .83 0zm.41 0v-1.26a.82.82 0 0 0-1.64 0v1.26a.82.82 0 0 0 1.64 0zm-1.93-.06h-.44a.57.57 0 0 1-.58.49.57.57 0 0 1-.42-.17c-.14-.15-.17-.32-.17-.89s0-.74.17-.89a.59.59 0 0 1 1 .32h.44a1 1 0 0 0-1-.87 1 1 0 0 0-.75.3c-.28.28-.28.6-.28 1.14s0 .86.28 1.14a1 1 0 0 0 .75.3 1 1 0 0 0 1-.87zM10 17.61a.43.43 0 0 1-.48.44h-.61v-.89h.64a.44.44 0 0 1 .45.45zm.52 2l-.62-1.24a.75.75 0 0 0 .57-.75.81.81 0 0 0-.88-.83H8.48v2.85h.43v-1.2h.54l.6 1.2zm-2.39-.41v-.38h-.3v-.66h-.4v.66h-.71l1-2h-.44l-1 2v.38h1.15v.43h.4v-.43zm-2.43-.39a.47.47 0 1 1-.47-.48.46.46 0 0 1 .47.48zm0-1.26a.42.42 0 1 1-.42-.44.42.42 0 0 1 .37.44zm.46 1.27a.75.75 0 0 0-.39-.67.69.69 0 0 0 .34-.61.78.78 0 0 0-.83-.79.78.78 0 0 0-.83.79.69.69 0 0 0 .34.61.75.75 0 0 0-.39.67.82.82 0 0 0 .88.83.82.82 0 0 0 .83-.83z"/></svg>