<svg xmlns="http://www.w3.org/2000/svg" width="24" height="24" viewBox="0 0 24 24"><defs><style>.a{fill:#1a171b}</style></defs><title>chocolate-white-24-laptop</title><path class="a" d="M5.5 4.5V5h12a.51.51 0 0 1 .5.5v8.1l1 5 .49-.1H19a.51.51 0 0 1-.5.5h-14a.51.51 0 0 1-.5-.5h-.5l.49.1 1-5V5.5A.51.51 0 0 1 5.5 5V4A1.5 1.5 0 0 0 4 5.5v7.95L3 18.4v.1A1.5 1.5 0 0 0 4.5 20h14a1.5 1.5 0 0 0 1.5-1.5v-.1l-1-4.95V5.5A1.5 1.5 0 0 0 17.5 4h-12z"/><path class="a" d="M10.5 18h2a.5.5 0 0 0 0-1h-2a.5.5 0 0 0 0 1M16.5 12.5V12H7V7h9v5.5h1v-6a.5.5 0 0 0-.5-.5h-10a.5.5 0 0 0-.5.5v6a.5.5 0 0 0 .5.5h10a.5.5 0 0 0 .5-.5zM4.5 15h14a.5.5 0 0 0 0-1h-14a.5.5 0 0 0 0 1"/></svg>