<svg xmlns="http://www.w3.org/2000/svg" width="24" height="24" viewBox="0 0 24 24"><defs><style>.a{fill:#1a171b}</style></defs><title>chocolate-white-24-truck</title><path class="a" d="M15.5 14.5V14H3V6h12v8.5h1v-9a.5.5 0 0 0-.5-.5h-13a.5.5 0 0 0-.5.5v9a.5.5 0 0 0 .5.5h13a.5.5 0 0 0 .5-.5z"/><path class="a" d="M21.5 15.5V15H16V8.09l5 .83v6.58h1v-7a.5.5 0 0 0-.42-.5l-6-1a.5.5 0 0 0-.58.5v8a.5.5 0 0 0 .5.5h6a.5.5 0 0 0 .5-.5z"/><path class="a" d="M21.5 10.17l.08-.49-4-.67a.5.5 0 0 0-.58.49v3a.5.5 0 0 0 .5.5h4a.5.5 0 0 0 .5-.5v-2.33a.5.5 0 0 0-.42-.49l-.08.49H21V12h-3v-1.91l3.42.57.08-.49zM5.5 17H5a1 1 0 1 1-1-1 1 1 0 0 1 1 1h1a2 2 0 1 0-2 2 2 2 0 0 0 2-2z"/><path class="a" d="M9.5 17H9a1 1 0 1 1-1-1 1 1 0 0 1 1 1h1a2 2 0 1 0-2 2 2 2 0 0 0 2-2zM19.5 17H19a1 1 0 1 1-1-1 1 1 0 0 1 1 1h1a2 2 0 1 0-2 2 2 2 0 0 0 2-2z"/><path class="a" d="M16.5 16h-7a.5.5 0 0 0 0 1h7a.5.5 0 0 0 0-1"/></svg>