<svg xmlns="http://www.w3.org/2000/svg" width="24" height="24" viewBox="0 0 24 24"><defs><style>.a{fill:#1a171b}</style></defs><title>chocolate-white-24-upload</title><path class="a" d="M17.14 17.93a.5.5 0 0 1-.68.74L12.5 15v6.9a.5.5 0 0 1-1 0V15l-4 3.63a.5.5 0 0 1-.68-.74l4.8-4.4H11.77a.5.5 0 0 1 .37 0H12.29zM20.5 8.3a3.7 3.7 0 0 1-3.7 3.7H6.4a2.9 2.9 0 1 1 0-5.8 2.84 2.84 0 0 1 .5 0A4.48 4.48 0 0 1 15 5.08a3.7 3.7 0 0 1 5.5 3.22zm-1 0a2.7 2.7 0 0 0-4.38-2.11.5.5 0 0 1-.76-.19 3.49 3.49 0 0 0-6.61.93.5.5 0 0 1-.67.39A1.9 1.9 0 1 0 6.4 11h10.4a2.7 2.7 0 0 0 2.7-2.7z"/></svg>