<svg xmlns="http://www.w3.org/2000/svg" width="24" height="24" viewBox="0 0 24 24"><defs><style>.a{fill:#1a171b}</style></defs><title>chocolate-white-24-alert</title><path class="a" d="M3.5 19.5l.43.25L12 5.51 19.64 19H3.5v.5l.43.25-.43-.25v.5h17a.5.5 0 0 0 .43-.75l-8.5-15a.5.5 0 0 0-.87 0l-8.5 15a.5.5 0 0 0 .44.75z"/><path class="a" d="M11.5 10.5v.5h.43l-.43 3.44.5.06.5-.06-.5-4-.5.06-.5.06.5 4a.5.5 0 0 0 1 0l.5-4a.5.5 0 0 0-.5-.56h-1a.5.5 0 0 0-.5.56zM12.5 17h.5a1 1 0 1 0-1 1 1 1 0 0 0 1-1z"/></svg>