<svg xmlns="http://www.w3.org/2000/svg" width="24" height="24" viewBox="0 0 24 24"><defs><style>.a{fill:#1a171b}</style></defs><title>chocolate-white-24-atomic-page-circled</title><path class="a" d="M17.58 19.58v-.5L7 19V5h6.09L17 8.6l.08 11h1L18 8.37a.5.5 0 0 0-.16-.37l-4.22-3.87a.5.5 0 0 0-.34-.13H6.5a.5.5 0 0 0-.5.5v15a.5.5 0 0 0 .5.5l11.08.08a.5.5 0 0 0 .5-.5z"/><path class="a" d="M13 4.5v4a.5.5 0 0 0 .5.5h4a.5.5 0 0 0 0-1H14V4.5a.5.5 0 0 0-1 0z"/><path class="a" d="M18.5 22.5V22h-13A3.51 3.51 0 0 1 2 18.5v-13A3.51 3.51 0 0 1 5.5 2h13A3.51 3.51 0 0 1 22 5.5v13a3.51 3.51 0 0 1-3.5 3.5v1a4.51 4.51 0 0 0 4.5-4.5v-13A4.51 4.51 0 0 0 18.5 1h-13A4.51 4.51 0 0 0 1 5.5v13A4.51 4.51 0 0 0 5.5 23h13z"/></svg>