<svg xmlns="http://www.w3.org/2000/svg" width="24" height="24" viewBox="0 0 24 24"><defs><style>.a{fill:#1a171b}</style></defs><title>chocolate-white-24-atomic-molecule-circled</title><path class="a" d="M18.5 22.5V22h-13A3.51 3.51 0 0 1 2 18.5v-13A3.51 3.51 0 0 1 5.5 2h13A3.51 3.51 0 0 1 22 5.5v13a3.51 3.51 0 0 1-3.5 3.5v1a4.51 4.51 0 0 0 4.5-4.5v-13A4.51 4.51 0 0 0 18.5 1h-13A4.51 4.51 0 0 0 1 5.5v13A4.51 4.51 0 0 0 5.5 23h13z"/><path class="a" d="M11.5 8H11a3 3 0 1 1-3-3 3 3 0 0 1 3 3h1a4 4 0 1 0-4 4 4 4 0 0 0 4-4z"/><path class="a" d="M8.5 8H9a1 1 0 1 0-1 1 1 1 0 0 0 1-1zM19.5 8H19a3 3 0 1 1-3-3 3 3 0 0 1 3 3h1a4 4 0 1 0-4 4 4 4 0 0 0 4-4z"/><path class="a" d="M16.5 8h.5a1 1 0 1 0-1 1 1 1 0 0 0 1-1zM11.5 16H11a3 3 0 1 1-3-3 3 3 0 0 1 3 3h1a4 4 0 1 0-4 4 4 4 0 0 0 4-4z"/><path class="a" d="M8.5 16H9a1 1 0 1 0-1 1 1 1 0 0 0 1-1z"/></svg>