<svg xmlns="http://www.w3.org/2000/svg" width="24" height="24" viewBox="0 0 24 24"><defs><style>.a{fill:#1a171b}</style></defs><title>chocolate-white-24-atomic-molecule</title><path class="a" d="M12.5 9H12a3 3 0 1 1-3-3 3 3 0 0 1 3 3h1a4 4 0 1 0-4 4 4 4 0 0 0 4-4z"/><path class="a" d="M9.5 9h.5a1 1 0 1 0-1 1 1 1 0 0 0 1-1zM20.5 9H20a3 3 0 1 1-3-3 3 3 0 0 1 3 3h1a4 4 0 1 0-4 4 4 4 0 0 0 4-4z"/><path class="a" d="M17.5 9h.5a1 1 0 1 0-1 1 1 1 0 0 0 1-1zM12.5 17H12a3 3 0 1 1-3-3 3 3 0 0 1 3 3h1a4 4 0 1 0-4 4 4 4 0 0 0 4-4z"/><path class="a" d="M9.5 17h.5a1 1 0 1 0-1 1 1 1 0 0 0 1-1z"/></svg>