<svg xmlns="http://www.w3.org/2000/svg" width="64" height="64" viewBox="0 0 64 64"><defs><style>.a{fill:#1a171b;}</style></defs><title>atom</title><path class="a" d="M44,23a3,3,0,0,0-4.31-2.69,14,14,0,1,0,4,4A3,3,0,0,0,44,23ZM32,43a11,11,0,1,1,6-20.2c0,.07,0,.13,0,.2a3,3,0,0,0,3,3l.2,0A11,11,0,0,1,32,43Zm0-15a4,4,0,1,0,4,4A4,4,0,0,0,32,28Zm0,5a1,1,0,1,1,1-1A1,1,0,0,1,32,33ZM52,8H12a4,4,0,0,0-4,4V52a4,4,0,0,0,4,4H52a4,4,0,0,0,4-4V12A4,4,0,0,0,52,8Zm1,44a1,1,0,0,1-1,1H12a1,1,0,0,1-1-1V12a1,1,0,0,1,1-1H52a1,1,0,0,1,1,1Z"/></svg>