<svg xmlns="http://www.w3.org/2000/svg" width="24" height="24" viewBox="0 0 24 24"><defs><style>.a{fill:#1a171b}</style></defs><title>chocolate-white-24-avatar-female</title><path class="a" d="M17 20.5V20H7v.5l.48-.14a8.15 8.15 0 0 1-.24-1.93 4.7 4.7 0 0 1 .85-2.91C8.75 14.66 9.87 14 12 14s3.25.66 3.91 1.48a4.7 4.7 0 0 1 .85 2.91 8.31 8.31 0 0 1-.12 1.41c0 .18-.06.32-.09.42v.11l.48.14.48.14a9 9 0 0 0 .28-2.24 5.67 5.67 0 0 0-1.07-3.53A5.6 5.6 0 0 0 12 13a5.6 5.6 0 0 0-4.7 1.87 5.67 5.67 0 0 0-1.06 3.53 9 9 0 0 0 .28 2.24A.5.5 0 0 0 7 21h10a.5.5 0 0 0 .48-.36zM18.63 11.78l.35-.35a4.06 4.06 0 0 1-.69-1.52 14.5 14.5 0 0 0-1.48-3.75 4.72 4.72 0 0 0-1.59-1.54A5.37 5.37 0 0 0 12 4l.07.5.07-.5a5 5 0 0 0-.66 0 4.74 4.74 0 0 0-3.14 1.06 7.56 7.56 0 0 0-2.09 3.66c-.2.63-.36 1.23-.53 1.71a2.79 2.79 0 0 1-.52 1 .52.52 0 0 0 .06.8.6.6 0 0 0 .27.11h.17a5 5 0 0 0 1.4-.28 4.24 4.24 0 0 0 1.64-.93l.26-.26a.5.5 0 0 0 .13-.51A3 3 0 0 1 9 9.5a2 2 0 0 1 .21-1 1.74 1.74 0 0 1 1-.78A5.38 5.38 0 0 1 12 7.5a4.4 4.4 0 0 1 2.22.5 1.53 1.53 0 0 1 .57.58 2 2 0 0 1 .21 1 3 3 0 0 1-.11.75.5.5 0 0 0 .14.49l.41.4a4.24 4.24 0 0 0 1.64.93 5 5 0 0 0 1.4.28 1 1 0 0 0 .24 0 .58.58 0 0 0 .2-.09.52.52 0 0 0 .06-.8l-.35.35-.35.35.33-.33h-.46a.46.46 0 0 0 .13.33l.33-.33-.28-.39a.49.49 0 0 0-.2.39h.48l-.28-.39.22.31-.06-.38a.36.36 0 0 0-.16.07l.22.31-.06-.38a4.18 4.18 0 0 1-1.08-.23 3.3 3.3 0 0 1-1.25-.69l-.44-.53-.35.36.48.12a4 4 0 0 0 .14-1 3 3 0 0 0-.34-1.45 2.74 2.74 0 0 0-1.54-1.24A6.34 6.34 0 0 0 12 6.5a5.33 5.33 0 0 0-2.73.6 2.53 2.53 0 0 0-.93 1A3 3 0 0 0 8 9.5a4 4 0 0 0 .19 1.16l.48-.14-.35-.36-.32.27a3.3 3.3 0 0 1-1.25.69 4.18 4.18 0 0 1-1.08.23v.27l.1-.25h-.08v.27l.1-.25-.17.42.32-.31-.15-.1-.17.42.32-.31-.35.33H6a.49.49 0 0 0-.13-.33l-.35.33.33.33a.46.46 0 0 0 .15-.36h-.41l.33.33a4.75 4.75 0 0 0 .93-1.93 13.76 13.76 0 0 1 1.36-3.5 3.72 3.72 0 0 1 1.25-1.22 4 4 0 0 1 2-.49A4 4 0 0 1 12 5h.13a4 4 0 0 1 .53 0 3.73 3.73 0 0 1 2.52.83A6.64 6.64 0 0 1 17 9c.19.61.35 1.21.54 1.74a3.65 3.65 0 0 0 .75 1.37z"/><path class="a" d="M15.5 9.5H15a3 3 0 0 1-6 0 2 2 0 0 1 .21-1 1.74 1.74 0 0 1 1-.78A5.38 5.38 0 0 1 12 7.5a4.4 4.4 0 0 1 2.22.5 1.53 1.53 0 0 1 .57.58 2 2 0 0 1 .21 1h1a3 3 0 0 0-.34-1.45 2.74 2.74 0 0 0-1.54-1.24A6.34 6.34 0 0 0 12 6.5a5.33 5.33 0 0 0-2.73.6 2.53 2.53 0 0 0-.93 1A3 3 0 0 0 8 9.5a4 4 0 0 0 8 0z"/></svg>