<svg xmlns="http://www.w3.org/2000/svg" width="24" height="24" viewBox="0 0 24 24"><defs><style>.a{fill:#1a171b}</style></defs><title>chocolate-white-24-avatar-male</title><path class="a" d="M16 7.5h-.5A3.5 3.5 0 1 1 12 4a3.51 3.51 0 0 1 3.5 3.5h1A4.5 4.5 0 1 0 12 12a4.5 4.5 0 0 0 4.5-4.5z"/><path class="a" d="M19 20.5V20H5v.5h.5v-.09a13.3 13.3 0 0 1 1-4.63 6.78 6.78 0 0 1 1.94-2.64A5.54 5.54 0 0 1 12 12a5.5 5.5 0 0 1 3.72 1.29 8.38 8.38 0 0 1 2.42 4.48 14.32 14.32 0 0 1 .31 1.95v.78h1.05a14.42 14.42 0 0 0-.91-4.68 8.19 8.19 0 0 0-2.22-3.29A6.5 6.5 0 0 0 12 11a6.5 6.5 0 0 0-4.37 1.53 9.34 9.34 0 0 0-2.75 5 14.38 14.38 0 0 0-.38 3A.5.5 0 0 0 5 21h14a.5.5 0 0 0 .5-.5z"/></svg>