<svg xmlns="http://www.w3.org/2000/svg" width="24" height="24" viewBox="0 0 24 24"><defs><style>.a{fill:#1a171b}</style></defs><title>chocolate-white-24-avatar-generic-circled</title><path class="a" d="M16 9.5h-.5A3.5 3.5 0 1 1 12 6a3.51 3.51 0 0 1 3.5 3.5h1A4.5 4.5 0 1 0 12 14a4.5 4.5 0 0 0 4.5-4.5z"/><path class="a" d="M12 21.62v.5a9.55 9.55 0 0 0 6.33-2.39.5.5 0 0 0 .16-.49 9.1 9.1 0 0 0-1.86-3.84 5.89 5.89 0 0 0-4.62-2 5.89 5.89 0 0 0-4.62 2 9.1 9.1 0 0 0-1.86 3.84.5.5 0 0 0 .16.49A9.55 9.55 0 0 0 12 22.12v-1A8.55 8.55 0 0 1 6.33 19l-.33.35.49.12a8.13 8.13 0 0 1 1.64-3.42A4.88 4.88 0 0 1 12 14.38a4.88 4.88 0 0 1 3.87 1.67 8.13 8.13 0 0 1 1.64 3.42l.49-.12-.33-.35A8.55 8.55 0 0 1 12 21.12z"/><path class="a" d="M21.5 12h.5a10 10 0 1 0-10 10 10 10 0 0 0 10-10h-1a9 9 0 1 1-2.64-6.36A9 9 0 0 1 21 12z"/></svg>