<svg xmlns="http://www.w3.org/2000/svg" width="24" height="24" viewBox="0 0 24 24"><defs><style>.a{fill:#1a171b}</style></defs><title>chocolate-white-24-burger-menu</title><path class="a" d="M22 8H2v1h20M22 4H2v1h20M22 12H2v1h20"/><path d="M6.72 19.79v-4.98h-.76l-1.43 3.1-1.46-3.1h-.75v4.98h.75v-3.33l1.18 2.43h.56l1.15-2.43v3.33h.76zM21.62 18.11v-3.3h-.76v3.27a1 1 0 1 1-2.07 0v-3.27H18v3.31a1.79 1.79 0 0 0 3.58 0zm-5.1 1.68v-5h-.76v3.5l-2.3-3.5h-.69v5h.76v-3.51l2.3 3.51zm-5.05 0v-.68H9v-1.5h2.07v-.67H9v-1.45h2.43v-.68H8.29v5z"/></svg>