<svg xmlns="http://www.w3.org/2000/svg" width="24" height="24" viewBox="0 0 24 24"><defs><style>.a{fill:#fff}</style></defs><title>chocolate-white-24-camera</title><path d="M16.5 12.5H16a4.5 4.5 0 1 1-1.32-3.18A4.48 4.48 0 0 1 16 12.5h1a5.5 5.5 0 1 0-5.5 5.5 5.5 5.5 0 0 0 5.5-5.5z"/><path d="M2.5 17.5H3V8.92l5.83-.97L9.81 6h2.38l.98 1.96 7.83.98V17H2.5v.5H3h-.5v.5H22V8.06l-8.17-1.02L12.81 5H9.19L8.17 7.05 2 8.08V18h.5v-.5z"/><path d="M7.5 7.5V7h-4v1h4V7h-4v1h4v-.5zM9.08 11.16a1.65 1.65 0 0 1 1.12-1.05l-.27-1a2.65 2.65 0 0 0-1.8 1.69l.95.32z"/><circle class="a" cx="18.5" cy="10.5" r="1"/><path d="M19.5 10.5H19a.5.5 0 1 1-.5-.5.5.5 0 0 1 .5.5h1a1.5 1.5 0 1 0-1.5 1.5 1.5 1.5 0 0 0 1.5-1.5z"/></svg>