<svg xmlns="http://www.w3.org/2000/svg" width="64" height="64" viewBox="0 0 64 64"><defs><style>.a{fill:#1a171b;}</style></defs><title>cart</title><path class="a" d="M20,44.5A5.5,5.5,0,1,0,25.5,50,5.5,5.5,0,0,0,20,44.5Zm0,8A2.5,2.5,0,1,1,22.5,50,2.5,2.5,0,0,1,20,52.5Zm20-8A5.5,5.5,0,1,0,45.5,50,5.5,5.5,0,0,0,40,44.5Zm0,8A2.5,2.5,0,1,1,42.5,50,2.5,2.5,0,0,1,40,52.5ZM57.48,12.79a1.5,1.5,0,0,0-1.7-1.27l-7,1-.09,0-.16,0-.13.05-.13.06-.12.08-.11.08-.1.1-.1.11-.08.11-.08.13-.06.13,0,.13a1.49,1.49,0,0,0,0,.16s0,.06,0,.09l-.8,6.68H9a1.5,1.5,0,0,0-1.36,2.14l8,17A1.49,1.49,0,0,0,17,40.5H46a1.48,1.48,0,0,0,.47-.09l.07,0a1.5,1.5,0,0,0,.4-.24l0,0a1.49,1.49,0,0,0,.29-.38l0,0a1.49,1.49,0,0,0,.15-.49h0l2.86-23.85,5.86-.84A1.5,1.5,0,0,0,57.48,12.79ZM11.36,23.5H46.31l-1.65,14H18Z"/></svg>