<svg xmlns="http://www.w3.org/2000/svg" width="64" height="64" viewBox="0 0 64 64"><defs><style>.a{fill:#1a171b;}</style></defs><title>cart alt</title><path class="a" d="M53.5,34h0V28A1.5,1.5,0,0,0,52,26.5H43.87L36.3,13.26a1.5,1.5,0,0,0-2.6,1.49L40.42,26.5H23.58L30.3,14.74a1.5,1.5,0,0,0-2.6-1.49L20.13,26.5H12A1.5,1.5,0,0,0,10.5,28V38.44a9.06,9.06,0,0,0,9.06,9.06H44.44a9.06,9.06,0,0,0,9.06-9.06V34Zm-40,4.44V35.5h7v3h-7S13.5,38.46,13.5,38.44Zm10-2.94h7v3h-7Zm7-6v3h-7v-3Zm3,0h7v3h-7Zm-3,12v3h-7v-3Zm3,0h7v3h-7Zm0-3v-3h7v3Zm10-3h7v2.94s0,0,0,.06h-7Zm7-3h-7v-3h7Zm-30-3v3h-7v-3ZM15.27,42.73a6.12,6.12,0,0,1-.94-1.23H20.5v3h-.94A6,6,0,0,1,15.27,42.73ZM44.44,44.5H43.5v-3h6.16a6.12,6.12,0,0,1-.94,1.23A6,6,0,0,1,44.44,44.5Z"/></svg>