<svg xmlns="http://www.w3.org/2000/svg" width="24" height="24" viewBox="0 0 24 24"><defs><style>.a{fill:#1a171b}</style></defs><title>chocolate-white-24-cart</title><path class="a" d="M16.5 14.5V14H5.81l-2.5-5h13.6L16 14.42l.49.08.49.08 1-6A.5.5 0 0 0 17.5 8h-15a.5.5 0 0 0-.45.72l3 6a.5.5 0 0 0 .45.28h11a.5.5 0 0 0 .49-.42z"/><path class="a" d="M18 4.38l-1 4a.5.5 0 1 0 1 .24l1-4a.5.5 0 1 0-1-.24"/><path class="a" d="M21.5 4h-3a.5.5 0 0 0 0 1h3a.5.5 0 0 0 0-1M8.5 18.5H8A1.5 1.5 0 1 1 6.5 17 1.5 1.5 0 0 1 8 18.5h1A2.5 2.5 0 1 0 6.5 21 2.5 2.5 0 0 0 9 18.5zM15.5 18.5H15a1.5 1.5 0 1 1-1.5-1.5 1.5 1.5 0 0 1 1.5 1.5h1a2.5 2.5 0 1 0-2.5 2.5 2.5 2.5 0 0 0 2.5-2.5z"/></svg>