<svg xmlns="http://www.w3.org/2000/svg" width="64" height="64" viewBox="0 0 64 64"><title>copy URL</title><path d="M53.06,10.94A1.51,1.51,0,0,0,52,10.5H47.5V8A1.5,1.5,0,0,0,46,6.5H18A1.5,1.5,0,0,0,16.5,8v2.5H12A1.5,1.5,0,0,0,10.5,12V56A1.5,1.5,0,0,0,12,57.5H52A1.5,1.5,0,0,0,53.5,56V12A1.51,1.51,0,0,0,53.06,10.94ZM19.5,9.5h25v5h-25Zm31,45h-37v-41h3V16A1.5,1.5,0,0,0,18,17.5H46A1.5,1.5,0,0,0,47.5,16V13.5h3Zm-18.38-34h-.24a15.49,15.49,0,0,0,0,31h.24a15.49,15.49,0,0,0,0-31ZM44.5,36a12.44,12.44,0,0,1-1,4.89,21,21,0,0,0-2.14-1.09l-.52-.21A12.74,12.74,0,0,0,41.41,36a12.94,12.94,0,0,0-.66-3.93A23.19,23.19,0,0,0,43.44,31,12.43,12.43,0,0,1,44.5,36Zm-25,0a12.43,12.43,0,0,1,1.06-5,23.19,23.19,0,0,0,2.69,1.1A12.94,12.94,0,0,0,22.59,36a12.74,12.74,0,0,0,.56,3.59l-.52.21a21,21,0,0,0-2.14,1.09A12.44,12.44,0,0,1,19.5,36Zm6.09,0a10.08,10.08,0,0,1,.55-3.13,27.41,27.41,0,0,0,4.36.59V37.9a23.28,23.28,0,0,0-4.51.74A9.71,9.71,0,0,1,25.59,36ZM33.5,25.69c.46.53,1,1.13,1.44,1.79a24,24,0,0,1,1.67,2.59,24.48,24.48,0,0,1-3.11.38Zm-3,4.76a24.53,24.53,0,0,1-3.11-.38,26.65,26.65,0,0,1,3.11-4.37Zm0,10.46v5.4c-.46-.53-1-1.13-1.44-1.79a23.19,23.19,0,0,1-1.95-3.08A20.36,20.36,0,0,1,30.5,40.91Zm3,0a20.38,20.38,0,0,1,3.36.53,25.91,25.91,0,0,1-3.36,4.87Zm0-3V33.46a27.4,27.4,0,0,0,4.36-.59A10.08,10.08,0,0,1,38.41,36a9.7,9.7,0,0,1-.4,2.64A23.28,23.28,0,0,0,33.5,37.9Zm8.39-9.51a21,21,0,0,1-2.29.9,27.88,27.88,0,0,0-3.4-5,12.52,12.52,0,0,1,4.63,2.92A12.65,12.65,0,0,1,41.89,28.39ZM27.8,24.24c-.31.37-.63.77-1,1.19a26.4,26.4,0,0,0-2.44,3.86l-.65-.23c-.65-.24-1.2-.48-1.64-.69a12.1,12.1,0,0,1,5.69-4.14ZM22,43.48a17.89,17.89,0,0,1,2-1l.21-.09a27.49,27.49,0,0,0,3.56,5.38A12.11,12.11,0,0,1,22,43.48Zm14.2,4.28c.31-.37.63-.77,1-1.19a26,26,0,0,0,2.61-4.19l.4.17a17.93,17.93,0,0,1,1.83.93,12.12,12.12,0,0,1-5.79,4.28Z"/></svg>