<svg xmlns="http://www.w3.org/2000/svg" width="24" height="24" viewBox="0 0 24 24"><defs><style>.a{fill:#1a171b}</style></defs><title>chocolate-white-24-copy-link-45</title><path class="a" d="M19.85 3.15A.5.5 0 0 0 19.5 3H18v-.5a.5.5 0 0 0-.5-.5h-11a.5.5 0 0 0-.5.5V3H4.5a.5.5 0 0 0-.5.5v17a.5.5 0 0 0 .5.5h15a.5.5 0 0 0 .5-.5v-17a.5.5 0 0 0-.15-.35zM7 3h10v2H7zm12 17H5V4h1v1.5a.5.5 0 0 0 .5.5h11a.5.5 0 0 0 .5-.5V4h1zM16.24 7.59A1.73 1.73 0 0 0 15 7a1.73 1.73 0 0 0-1.21.59l-2.1 2.14a1.73 1.73 0 0 0-.59 1.21 1.73 1.73 0 0 0 .59 1.21l.07.07-.6.6a2.17 2.17 0 0 0-2.8.23l-1.47 1.47a2.18 2.18 0 0 0 0 3.08l.19.19a2.18 2.18 0 0 0 3.08 0l1.47-1.47a2.17 2.17 0 0 0 .23-2.8l.6-.6.07.07a1.73 1.73 0 0 0 1.21.59A1.73 1.73 0 0 0 15 13l2.14-2.14a1.73 1.73 0 0 0 .59-1.21 1.73 1.73 0 0 0-.59-1.21zm-5 7.2a1.18 1.18 0 0 1-.35.83l-1.44 1.47a1.18 1.18 0 0 1-1.67 0l-.18-.19a1.18 1.18 0 0 1 0-1.67l1.47-1.47a1.13 1.13 0 0 1 1.36-.21L10 14a.5.5 0 0 0 .71.71l.45-.45a1.18 1.18 0 0 1 .11.52zm5.12-4.63l-2.14 2.14c-.25.25-.41.3-.5.29s-.25 0-.5-.29l-.07-.07.5-.5A.5.5 0 0 0 13 11l-.5.5-.07-.07c-.25-.25-.3-.41-.29-.5s0-.25.29-.5l2.14-2.14c.25-.25.41-.3.5-.29s.25 0 .5.29l.86.86c.25.25.3.41.29.5s-.08.26-.33.5z"/></svg>