<svg xmlns="http://www.w3.org/2000/svg" width="64" height="64" viewBox="0 0 64 64"><defs><style>.a{fill:#1a171b;}</style></defs><title>copy link</title><path class="a" d="M42,29.85H38.8a5.5,5.5,0,0,0-5.43,4.68H30.63a5.5,5.5,0,0,0-5.43-4.68H22a5.5,5.5,0,0,0-5.5,5.5v1.36a5.5,5.5,0,0,0,5.5,5.5h3.2a5.5,5.5,0,0,0,5.43-4.68h2.74a5.5,5.5,0,0,0,5.43,4.68h3.33a5.5,5.5,0,0,0,5.37-5.49V35.35A5.5,5.5,0,0,0,42,29.85ZM25.2,39.22H22a2.5,2.5,0,0,1-2.5-2.5V35.35a2.5,2.5,0,0,1,2.5-2.5h3.2a2.5,2.5,0,0,1,2.35,1.68H26.4a1.5,1.5,0,1,0,0,3h1.15A2.5,2.5,0,0,1,25.2,39.22Zm16.82,3h0Zm2.48-5.5a2.5,2.5,0,0,1-2.5,2.5H38.8a2.49,2.49,0,0,1-2.35-1.68H37.6a1.5,1.5,0,0,0,0-3H36.45a2.49,2.49,0,0,1,2.35-1.68H42a2.5,2.5,0,0,1,2.5,2.5Zm8.56-25.78A1.51,1.51,0,0,0,52,10.5H47.5V8A1.5,1.5,0,0,0,46,6.5H18A1.5,1.5,0,0,0,16.5,8v2.5H12A1.5,1.5,0,0,0,10.5,12V56A1.5,1.5,0,0,0,12,57.5H52A1.5,1.5,0,0,0,53.5,56V12A1.51,1.51,0,0,0,53.06,10.94ZM19.5,9.5h25V12h0v2.5h-25Zm31,45h-37v-41h3V16A1.5,1.5,0,0,0,18,17.5H46A1.5,1.5,0,0,0,47.5,16V13.5h3Z"/></svg>