<svg xmlns="http://www.w3.org/2000/svg" width="64" height="64" viewBox="0 0 64 64"><defs><style>.a{fill:#1a171b;}</style></defs><title>duplicate</title><path class="a" d="M51.47,28.71a1.49,1.49,0,0,0-.22-.54h0a1.51,1.51,0,0,0-.19-.23l-8-8a1.51,1.51,0,0,0-.23-.19h0a1.49,1.49,0,0,0-.53-.22l-.29,0H39.41a1.49,1.49,0,0,0,.09-.5V16a1.51,1.51,0,0,0-.25-.83h0a1.51,1.51,0,0,0-.19-.23l-8-8a1.51,1.51,0,0,0-.23-.19h0a1.49,1.49,0,0,0-.53-.22L30,6.5H14A1.5,1.5,0,0,0,12.5,8V44A1.5,1.5,0,0,0,14,45.5H24a1.49,1.49,0,0,0,.5-.09V56A1.5,1.5,0,0,0,26,57.5H50A1.5,1.5,0,0,0,51.5,56V29A1.48,1.48,0,0,0,51.47,28.71Zm-8-4.08,2.88,2.88H43.5Zm-12-13,2.88,2.88H31.5Zm-6.56,8.32A1.51,1.51,0,0,0,24.5,21V42.59a1.49,1.49,0,0,0-.5-.09H15.5V9.5h13V16A1.5,1.5,0,0,0,30,17.5h6.5V19a1.49,1.49,0,0,0,.09.5H26A1.51,1.51,0,0,0,24.94,19.94ZM27.5,22.5h13V29A1.5,1.5,0,0,0,42,30.5h6.5v24h-21Z"/></svg>