<svg xmlns="http://www.w3.org/2000/svg" width="24" height="24" viewBox="0 0 24 24"><defs><style>.a{fill:#1a171b}.b{fill:#fff}</style></defs><title>chocolate-white-24-email-open</title><path class="a" d="M20 8.5V19H3V8.5a.5.5 0 0 0-1 0v11a.5.5 0 0 0 .5.5h18a.5.5 0 0 0 .5-.5v-11a.5.5 0 1 0-1 0z"/><path class="a" d="M2.85 19.85l5-5a.5.5 0 1 0-.71-.71l-5 5a.5.5 0 0 0 .71.71M20.85 19.15l-5-5a.5.5 0 1 0-.71.71l5 5a.5.5 0 1 0 .71-.71M2.19 8.89l5 4a.5.5 0 0 0 .31.11h8a.5.5 0 0 0 .31-.11l5-3.91a.5.5 0 0 0 .19-.6l-1.45-3a.5.5 0 0 0-.25-.24l-5.42-2.37-.2.46.3-.4a4.12 4.12 0 0 0-4.98 0l.3.4-.2-.46-5.35 2.37a.5.5 0 0 0-.25.24l-1.5 3a.5.5 0 1 0 .9.44L4.32 6l5.2-2.29.1-.06a3.12 3.12 0 0 1 3.75 0l.1.06L18.68 6l1.2 2.47L15.33 12H7.68L2.81 8.11a.5.5 0 1 0-.62.78z"/><path class="b" d="M20.5 8.5l-15-5-2 5"/><path class="a" d="M20.66 8l-15-5a.5.5 0 0 0-.66.31l-2 5a.5.5 0 0 0 1 .38l1.79-4.57L20.34 9a.5.5 0 0 0 .32-1z"/></svg>