<svg xmlns="http://www.w3.org/2000/svg" width="24" height="24" viewBox="0 0 24 24"><title>chocolate-white-24-globe</title><path d="M12 2.5a9.5 9.5 0 1 0 9.5 9.5A9.51 9.51 0 0 0 12 2.5zm7 4.66a8.44 8.44 0 0 1 1.5 4.35h-2.93a12 12 0 0 0-.64-3.39A12 12 0 0 0 19 7.15zm-3.38-2.85A8.53 8.53 0 0 1 18 6c.12.12.23.25.34.37a11.21 11.21 0 0 1-1.79.82 11.9 11.9 0 0 0-1.48-2.52 6.31 6.31 0 0 0 .55-.36zM12.5 14.65V12.5h4.07a10.89 10.89 0 0 1-.51 2.82 12.4 12.4 0 0 0-3.56-.67zm3.22 1.62c-.14.34-.29.65-.44.93a10.79 10.79 0 0 1-.9 1.42l-.23.29a6.21 6.21 0 0 0-1.65-.35v-2.9a11.39 11.39 0 0 1 3.22.61zM16 8.42a10.88 10.88 0 0 1 .59 3.08H12.5V9a14.49 14.49 0 0 0 3.5-.58zM12.5 8V5.45a6.23 6.23 0 0 0 1.65-.35 10.83 10.83 0 0 1 1.45 2.39 13.51 13.51 0 0 1-3.1.51zM12 3.5a8.48 8.48 0 0 1 2.48.37 5.23 5.23 0 0 1-2.48.62 5.23 5.23 0 0 1-2.48-.62A8.48 8.48 0 0 1 12 3.5zM7.95 15.32a10.83 10.83 0 0 1-.5-2.82h4.05v2.15a12.39 12.39 0 0 0-3.55.67zm3.55.34v2.89a6.23 6.23 0 0 0-1.65.35 10.89 10.89 0 0 1-1.56-2.65 11.43 11.43 0 0 1 3.21-.59zM7.43 11.5A11 11 0 0 1 8 8.42a14.49 14.49 0 0 0 3.5.58v2.5zm1-4c.11-.24.22-.47.33-.68a10.79 10.79 0 0 1 .9-1.42l.23-.29a6.21 6.21 0 0 0 1.65.35v2.5a13.44 13.44 0 0 1-3.15-.48zM6 6a8.53 8.53 0 0 1 2.4-1.68 6.31 6.31 0 0 0 .53.35 11.91 11.91 0 0 0-1.49 2.5L7 7a11 11 0 0 1-1.35-.64c.11-.12.22-.25.35-.36zM5 7.15a12 12 0 0 0 2 1 12 12 0 0 0-.64 3.39H3.52A8.44 8.44 0 0 1 5 7.15zm0 9.67a8.44 8.44 0 0 1-1.48-4.32h2.91A12 12 0 0 0 7 15.69a11.31 11.31 0 0 0-2 1.13zm3.39 2.87A8.53 8.53 0 0 1 6 18c-.13-.13-.25-.27-.37-.41a10.21 10.21 0 0 1 1.73-1 11.88 11.88 0 0 0 1.57 2.71 6.31 6.31 0 0 0-.55.39zm3.61.81a8.48 8.48 0 0 1-2.48-.37 5.24 5.24 0 0 1 5 0 8.48 8.48 0 0 1-2.52.37zm6-2.5a8.53 8.53 0 0 1-2.4 1.68 6.31 6.31 0 0 0-.53-.35 11.89 11.89 0 0 0 1.56-2.7l.28.12a10.37 10.37 0 0 1 1.34.77l.11.08c-.1.14-.22.28-.36.4zm1-1.19a11.33 11.33 0 0 0-2-1.13 12 12 0 0 0 .57-3.19h2.91A8.44 8.44 0 0 1 19 16.82z"/></svg>