<svg xmlns="http://www.w3.org/2000/svg" width="64" height="64" viewBox="0 0 64 64"><title>globe</title><path d="M32,7.5A24.5,24.5,0,1,0,56.5,32,24.51,24.51,0,0,0,32,7.5ZM49.84,44a28.6,28.6,0,0,0-4-2.35L45,41.3a30.61,30.61,0,0,0,1.41-7.8h7A21.35,21.35,0,0,1,49.84,44ZM37.9,48.77l-.46.59a16.14,16.14,0,0,0-3.93-.87V41.55A28.71,28.71,0,0,1,41.2,43c-.33.77-.68,1.5-1,2.15A27.24,27.24,0,0,1,37.9,48.77Zm-11.33.59A26.16,26.16,0,0,1,23.75,45c-.32-.61-.64-1.29-.95-2a28.71,28.71,0,0,1,7.7-1.47v6.94A16.15,16.15,0,0,0,26.57,49.36Zm-16-15.86h7A30.61,30.61,0,0,0,19,41.3l-.76.35a28.6,28.6,0,0,0-4,2.35A21.35,21.35,0,0,1,10.58,33.5Zm3.65-13.59a30.17,30.17,0,0,0,4.07,2l.82.31a30.71,30.71,0,0,0-1.56,8.3h-7A21.35,21.35,0,0,1,14.23,19.91ZM26.1,15.23l.46-.59a16.14,16.14,0,0,0,3.93.87v5.95a34.21,34.21,0,0,1-7.41-1.13c.24-.53.49-1,.74-1.5A27.24,27.24,0,0,1,26.1,15.23Zm11.33-.59A26.15,26.15,0,0,1,40.25,19c.22.42.44.88.66,1.35a34.18,34.18,0,0,1-7.41,1.13V15.51A16.15,16.15,0,0,0,37.43,14.64ZM33.5,24.46A37.14,37.14,0,0,0,42,23.13a27.74,27.74,0,0,1,1.42,7.37H33.5Zm-3,0v6H20.56A27.71,27.71,0,0,1,22,23.13,37.14,37.14,0,0,0,30.5,24.46Zm-9.95,9H30.5v5a31.73,31.73,0,0,0-8.74,1.65A27.58,27.58,0,0,1,20.55,33.5Zm12.95,5v-5h9.94a27.59,27.59,0,0,1-1.21,6.7A31.73,31.73,0,0,0,33.5,38.55Zm12.94-8a30.72,30.72,0,0,0-1.56-8.3l.82-.31a30.17,30.17,0,0,0,4.07-2A21.35,21.35,0,0,1,53.42,30.5Zm1.43-13a28.34,28.34,0,0,1-3.43,1.62l-.66.25c-.31-.71-.64-1.38-1-2a30,30,0,0,0-2.61-4.09q.55-.32,1.07-.69A21.59,21.59,0,0,1,47.2,16.8C47.44,17,47.65,17.3,47.88,17.55ZM37.69,11.29A13.15,13.15,0,0,1,32,12.59a13.15,13.15,0,0,1-5.69-1.3,21,21,0,0,1,11.37,0Zm-15,1.35q.53.37,1.07.69a30,30,0,0,0-2.61,4.09c-.32.61-.65,1.29-1,2l-.8-.3a28,28,0,0,1-3.29-1.56c.23-.25.44-.51.68-.75A21.59,21.59,0,0,1,22.71,12.64ZM16,46.35a25.93,25.93,0,0,1,3.61-2.07l.36-.16c.38.88.77,1.71,1.17,2.46a30,30,0,0,0,2.61,4.09q-.55.32-1.07.69A21.59,21.59,0,0,1,16.8,47.2C16.53,46.93,16.29,46.64,16,46.35Zm10.28,6.36a13.06,13.06,0,0,1,11.37,0,21,21,0,0,1-11.37,0Zm15-1.35q-.53-.37-1.07-.69a30,30,0,0,0,2.61-4.09c.4-.74.79-1.57,1.17-2.46l.51.23a26.24,26.24,0,0,1,3.4,1.95l.07.05c-.26.28-.5.58-.77.85A21.58,21.58,0,0,1,41.29,51.36Z"/></svg>