<svg xmlns="http://www.w3.org/2000/svg" width="24" height="24" viewBox="0 0 24 24"><title>chocolate-white-24-help</title><path d="M18.57 4.43l.35-.35A10.5 10.5 0 1 0 22 11.5a10.47 10.47 0 0 0-3.08-7.42l-.35.35-.35.35A9.5 9.5 0 1 1 11.5 2a9.47 9.47 0 0 1 6.72 2.78zM7.26 15.74l.35-.35A5.5 5.5 0 1 1 11.5 17a5.48 5.48 0 0 1-3.89-1.61l-.35.35-.35.35A6.5 6.5 0 1 0 5 11.5a6.48 6.48 0 0 0 1.9 4.6z"/><path d="M7.26 15.74l-2.83 2.83a10 10 0 0 1 0-14.14l2.83 2.83a6 6 0 0 0 0 8.48zm8.48 0l2.83 2.83a10 10 0 0 0 0-14.14l-2.83 2.83a6 6 0 0 1 0 8.48z"/><path d="M7.26 15.74l-.35-.35-2.83 2.83.35.35.35-.35a9.5 9.5 0 0 1 0-13.44l-.35-.35-.35.35L6.9 7.61l.35-.35-.35-.36a6.5 6.5 0 0 0 0 9.19l.35-.35-.35-.35.35.35.35-.35a5.5 5.5 0 0 1 0-7.78l.4-.35-3.57-3.54-.35.35a10.5 10.5 0 0 0 0 14.85l.35.35L8 15.74l-.35-.35zm8.48 0l-.35.35 3.18 3.18.35-.35a10.5 10.5 0 0 0 0-14.85l-.35-.35L15 7.26l.35.35a5.5 5.5 0 0 1 0 7.78l-.35.35.35.35.35-.35.35.35a6.5 6.5 0 0 0 0-9.19l-.35.35.35.35 2.83-2.83-.35-.35-.35.35a9.5 9.5 0 0 1 0 13.44l.35.35.35-.35-2.78-2.82-.35.35.35.35z"/></svg>