<svg xmlns="http://www.w3.org/2000/svg" width="24" height="24" viewBox="0 0 24 24"><title>chocolate-white-24-help-2</title><path d="M21.5 11.5h.5A10.5 10.5 0 1 0 11.5 22 10.5 10.5 0 0 0 22 11.5h-1a9.5 9.5 0 1 1-2.78-6.72A9.47 9.47 0 0 1 21 11.5z"/><path d="M8.5 9.5a3.28 3.28 0 0 1 .64-2.11 2.21 2.21 0 0 1 .86-.63 3.82 3.82 0 0 1 1.5-.26 3.82 3.82 0 0 1 1.5.26 2.2 2.2 0 0 1 1.14 1.05 3.69 3.69 0 0 1 .36 1.69 1.49 1.49 0 0 1-.1.58 1.55 1.55 0 0 1-.58.66 15.87 15.87 0 0 0-2 1.4 4.06 4.06 0 0 0-1 1.37 5.08 5.08 0 0 0-.37 2h2a2.59 2.59 0 0 1 .43-1.61 3 3 0 0 1 .76-.69A15 15 0 0 0 15.4 12a3.3 3.3 0 0 0 .79-1 3.43 3.43 0 0 0 .31-1.5 5.25 5.25 0 0 0-1.11-3.39 4.22 4.22 0 0 0-1.61-1.19 5.8 5.8 0 0 0-2.28-.42 5.8 5.8 0 0 0-2.28.42 4.22 4.22 0 0 0-2.13 2A5.66 5.66 0 0 0 6.5 9.5h2z"/><circle cx="11.5" cy="18" r="1"/><path d="M12.5 18h.5a1.5 1.5 0 1 0-1.5 1.5A1.5 1.5 0 0 0 13 18h-1a.5.5 0 1 1-.5-.5.5.5 0 0 1 .5.5z"/></svg>