<svg xmlns="http://www.w3.org/2000/svg" width="64" height="64" viewBox="0 0 64 64"><defs><style>.a{fill:#1a171b;}</style></defs><title>icongrid</title><path class="a" d="M64,19.5v-3H61.5V2.5h-14V-.07h-3V2.5h-11V0h-3V2.5h-11V-.07h-3V2.5H2.5v14H0v3H2.5v11H0v3H2.5v11H0v3H2.5v14h14v2.43h3V61.5h11V64h3V61.5h11v2.43h3V61.5h14v-14H64v-3H61.5v-11H64v-3H61.5v-11Zm-13.5,31h-3v-3h3Zm-37,0v-3h3v3Zm0-37h3v3h-3Zm37,0v3h-3v-3Zm-6,3h-11v-3h11Zm-14,3.1V30.5H19.6A12.46,12.46,0,0,1,30.5,19.6Zm0,13.9V44.4A12.46,12.46,0,0,1,19.6,33.5Zm3,10.9V33.5H44.4A12.46,12.46,0,0,1,33.5,44.4Zm0-13.9V19.6A12.46,12.46,0,0,1,44.4,30.5Zm-14-7.64V19.5h3.36A15.57,15.57,0,0,0,19.5,22.86ZM22.86,44.5H19.5V41.14A15.56,15.56,0,0,0,22.86,44.5ZM44.5,41.14V44.5H41.14A15.56,15.56,0,0,0,44.5,41.14ZM41.14,19.5H44.5v3.36A15.57,15.57,0,0,0,41.14,19.5Zm-10.64-3h-11v-3h11Zm-14,3v11h-3v-11Zm0,14v11h-3v-11Zm3,14h11v3h-11Zm14,0h11v3h-11Zm14-3v-11h3v11Zm0-14v-11h3v11Zm6-11h1.87a26.33,26.33,0,0,1,3.09,11h-5Zm-9-9h-11v-5a26.33,26.33,0,0,1,11,3.09Zm-14-5v5h-11V8.63A26.33,26.33,0,0,1,30.5,5.54Zm-20,14v11h-5a26.33,26.33,0,0,1,3.09-11Zm-5,14h5v11H8.63A26.33,26.33,0,0,1,5.54,33.5Zm14,20h11v5a26.33,26.33,0,0,1-11-3.09Zm14,5v-5h11v1.87A26.33,26.33,0,0,1,33.5,58.46Zm20-14v-11h5a26.33,26.33,0,0,1-3.09,11Zm3.6-28a29.58,29.58,0,0,0-2.13-3H58.5v3Zm1.4-11v5h-5v-5Zm-8,0V9a29.57,29.57,0,0,0-3-2.13V5.5Zm-34,0V6.9A29.57,29.57,0,0,0,13.5,9V5.5Zm-11,0h5v5h-5Zm0,8H9a29.58,29.58,0,0,0-2.13,3H5.5Zm1.4,34A29.59,29.59,0,0,0,9,50.5H5.5v-3Zm-1.4,11v-5h5v5Zm8,0V55a29.57,29.57,0,0,0,3,2.13v1.4Zm34,0V57.1a29.57,29.57,0,0,0,3-2.13V58.5Zm11,0h-5v-5h5Zm0-8H55a29.59,29.59,0,0,0,2.13-3h1.4Z"/></svg>