<svg xmlns="http://www.w3.org/2000/svg" width="24" height="24" viewBox="0 0 24 24"><defs><style>.a{fill:#1a171b}</style></defs><title>chocolate-white-24-imac</title><path class="a" d="M3.5 3.5V4h16a.51.51 0 0 1 .5.5v12a.51.51 0 0 1-.5.5h-16a.51.51 0 0 1-.5-.5v-12a.51.51 0 0 1 .5-.5V3A1.5 1.5 0 0 0 2 4.5v12A1.5 1.5 0 0 0 3.5 18h16a1.5 1.5 0 0 0 1.5-1.5v-12A1.5 1.5 0 0 0 19.5 3h-16z"/><path class="a" d="M10.5 16h2a.5.5 0 0 0 0-1h-2a.5.5 0 0 0 0 1M18.5 13.5V13H5V6h13v7.5h1v-8a.5.5 0 0 0-.5-.5h-14a.5.5 0 0 0-.5.5v8a.5.5 0 0 0 .5.5h14a.5.5 0 0 0 .5-.5zM16.5 20.5V20h-10a.5.5 0 1 0 0 1 2.31 2.31 0 0 0 1.3-.47 3.54 3.54 0 0 0 1.2-3h-.5V18h6v-.5H14a3.54 3.54 0 0 0 1.2 3 2.31 2.31 0 0 0 1.3.47.5.5 0 0 0 0-1 1.38 1.38 0 0 1-.77-.33A2.66 2.66 0 0 1 15 17.5a.5.5 0 0 0-.5-.5h-6a.5.5 0 0 0-.5.5 2.56 2.56 0 0 1-.8 2.22 1.43 1.43 0 0 1-.51.24h-.16a.5.5 0 1 0 0 1h10a.5.5 0 0 0 0-1z"/></svg>