<svg xmlns="http://www.w3.org/2000/svg" width="24" height="24" viewBox="0 0 24 24"><defs><style>.a{fill:#1a171b}</style></defs><title>chocolate-white-24-link-45</title><path class="a" d="M20.49 4.43L19.07 3a2.54 2.54 0 0 0-1.77-.88 2.54 2.54 0 0 0-1.76.88L12 6.55a2.54 2.54 0 0 0-.88 1.77 2.54 2.54 0 0 0 .88 1.77l.35.35-1.41 1.41-.35-.35a2.54 2.54 0 0 0-1.77-.88 2.54 2.54 0 0 0-1.77.88L3.51 15a2.54 2.54 0 0 0-.88 1.77 2.54 2.54 0 0 0 .88 1.77L4.93 20a2.54 2.54 0 0 0 1.77.88A2.54 2.54 0 0 0 8.46 20L12 16.45a2.54 2.54 0 0 0 .88-1.77 2.54 2.54 0 0 0-.88-1.77l-.35-.35 1.41-1.41.35.35a2.54 2.54 0 0 0 1.77.88 2.54 2.54 0 0 0 1.77-.88L20.49 8a2.54 2.54 0 0 0 .88-1.77 2.54 2.54 0 0 0-.88-1.8zm-9.19 9.19a1.58 1.58 0 0 1 .58 1.06 1.58 1.58 0 0 1-.58 1.06l-3.54 3.54a1.58 1.58 0 0 1-1.06.58 1.58 1.58 0 0 1-1.06-.58l-1.42-1.42a1.58 1.58 0 0 1-.58-1.06 1.58 1.58 0 0 1 .58-1.06l3.54-3.54a1.58 1.58 0 0 1 1.06-.58 1.58 1.58 0 0 1 1.06.58l.35.35-1.06 1.07a.5.5 0 0 0 .71.71l1.06-1.06zm8.49-6.36l-3.54 3.54a1.58 1.58 0 0 1-1.06.58 1.58 1.58 0 0 1-1.06-.58l-.35-.35 1.06-1.06a.5.5 0 0 0-.71-.71l-1.07 1.05-.35-.35a1.58 1.58 0 0 1-.58-1.06 1.58 1.58 0 0 1 .58-1.06l3.54-3.54a1.58 1.58 0 0 1 1.06-.58 1.58 1.58 0 0 1 1.06.58l1.41 1.41a1.58 1.58 0 0 1 .58 1.06 1.58 1.58 0 0 1-.58 1.07z"/></svg>