<svg xmlns="http://www.w3.org/2000/svg" width="64" height="64" viewBox="0 0 64 64"><defs><style>.a{fill:#1a171b;}</style></defs><title>link 45</title><path class="a" d="M47.91,17.5,46.5,16.09a5.5,5.5,0,0,0-7.78,0l-5.66,5.66h0a5.45,5.45,0,0,0-.32,7.39l-3.61,3.61a5.45,5.45,0,0,0-7.39.32l-5.66,5.66h0a5.5,5.5,0,0,0,0,7.78l1.41,1.41a5.5,5.5,0,0,0,7.78,0l5.66-5.66a5.45,5.45,0,0,0,.32-7.39l3.61-3.61a5.45,5.45,0,0,0,7.39-.32l5.66-5.66a5.5,5.5,0,0,0,0-7.78ZM29.55,38.36a2.49,2.49,0,0,1-.73,1.77l-5.66,5.66a2.5,2.5,0,0,1-3.54,0l-1.41-1.41a2.5,2.5,0,0,1,0-3.54h0l5.66-5.66A2.5,2.5,0,0,1,27,34.86L25.28,36.6a1.5,1.5,0,0,0,2.12,2.12L29.14,37A2.49,2.49,0,0,1,29.55,38.36Zm16.24-15.2-5.66,5.66a2.5,2.5,0,0,1-3.15.32l1.73-1.73a1.5,1.5,0,0,0-2.12-2.12L34.86,27a2.5,2.5,0,0,1,.32-3.15l5.66-5.66a2.5,2.5,0,0,1,3.54,0l1.41,1.41a2.5,2.5,0,0,1,0,3.54Z"/></svg>