<svg xmlns="http://www.w3.org/2000/svg" width="24" height="24" viewBox="0 0 24 24"><defs><style>.a{fill:#1a171b}</style></defs><title>chocolate-white-24-link</title><path class="a" d="M22.37 9.63A2.54 2.54 0 0 0 20.5 9h-5a2.54 2.54 0 0 0-1.87.63A2.54 2.54 0 0 0 13 11.5v.5h-2v-.5a2.54 2.54 0 0 0-.63-1.87A2.54 2.54 0 0 0 8.5 9h-5a2.54 2.54 0 0 0-1.87.63A2.54 2.54 0 0 0 1 11.5v2a2.54 2.54 0 0 0 .63 1.87A2.54 2.54 0 0 0 3.5 16h5a2.54 2.54 0 0 0 1.87-.63A2.54 2.54 0 0 0 11 13.5V13h2v.5a2.54 2.54 0 0 0 .63 1.87 2.54 2.54 0 0 0 1.87.63h5a2.54 2.54 0 0 0 1.87-.63A2.54 2.54 0 0 0 23 13.5v-2a2.54 2.54 0 0 0-.63-1.87zM10 13.5a1.58 1.58 0 0 1-.34 1.16A1.58 1.58 0 0 1 8.5 15h-5a1.58 1.58 0 0 1-1.16-.34A1.58 1.58 0 0 1 2 13.5v-2a1.58 1.58 0 0 1 .34-1.16A1.58 1.58 0 0 1 3.5 10h5a1.58 1.58 0 0 1 1.16.34A1.58 1.58 0 0 1 10 11.5v.5H8.5a.5.5 0 0 0 0 1H10zm12 0a1.58 1.58 0 0 1-.34 1.16 1.58 1.58 0 0 1-1.16.34h-5a1.58 1.58 0 0 1-1.16-.34A1.58 1.58 0 0 1 14 13.5V13h1.5a.5.5 0 0 0 0-1H14v-.5a1.58 1.58 0 0 1 .34-1.16A1.58 1.58 0 0 1 15.5 10h5a1.58 1.58 0 0 1 1.16.34A1.58 1.58 0 0 1 22 11.5z"/></svg>