<svg xmlns="http://www.w3.org/2000/svg" width="64" height="64" viewBox="0 0 64 64"><defs><style>.a{fill:#1a171b;}</style></defs><title>link</title><path class="a" d="M48,25.5H40a5.5,5.5,0,0,0-5.47,5H29.47a5.5,5.5,0,0,0-5.47-5H16A5.5,5.5,0,0,0,10.5,31v2A5.5,5.5,0,0,0,16,38.5h8a5.5,5.5,0,0,0,5.47-5h5.05a5.5,5.5,0,0,0,5.47,5h8A5.5,5.5,0,0,0,53.5,33V31A5.5,5.5,0,0,0,48,25.5Zm-24,10H16A2.5,2.5,0,0,1,13.5,33V31A2.5,2.5,0,0,1,16,28.5h8a2.5,2.5,0,0,1,2.45,2H24a1.5,1.5,0,0,0,0,3h2.45A2.5,2.5,0,0,1,24,35.5ZM50.5,33A2.5,2.5,0,0,1,48,35.5H40a2.5,2.5,0,0,1-2.45-2H40a1.5,1.5,0,0,0,0-3H37.55a2.5,2.5,0,0,1,2.45-2h8A2.5,2.5,0,0,1,50.5,31Z"/></svg>