<svg xmlns="http://www.w3.org/2000/svg" width="64" height="64" viewBox="0 0 64 64"><defs><style>.a{fill:#1a171b;}</style></defs><title>liste</title><path class="a" d="M49.47,15.71a1.49,1.49,0,0,0-.22-.54h0a1.51,1.51,0,0,0-.19-.23l-8-8a1.51,1.51,0,0,0-.23-.19h0a1.49,1.49,0,0,0-.53-.22L40,6.5H16A1.5,1.5,0,0,0,14.5,8V56A1.5,1.5,0,0,0,16,57.5H48A1.5,1.5,0,0,0,49.5,56V16A1.48,1.48,0,0,0,49.47,15.71Zm-8-4.08,2.88,2.88H41.5ZM17.5,9.5h21V16A1.5,1.5,0,0,0,40,17.5h6.5v37h-29ZM26,23a2,2,0,1,1-2-2A2,2,0,0,1,26,23Zm0,14a2,2,0,1,1-2-2A2,2,0,0,1,26,37Zm0-7a2,2,0,1,1-2-2A2,2,0,0,1,26,30Zm0,14a2,2,0,1,1-2-2A2,2,0,0,1,26,44ZM27.5,23A1.5,1.5,0,0,1,29,21.5h6a1.5,1.5,0,0,1,0,3H29A1.5,1.5,0,0,1,27.5,23Zm14,7A1.5,1.5,0,0,1,40,31.5H29a1.5,1.5,0,0,1,0-3H40A1.5,1.5,0,0,1,41.5,30Zm-14,7A1.5,1.5,0,0,1,29,35.5h7a1.5,1.5,0,0,1,0,3H29A1.5,1.5,0,0,1,27.5,37Zm12,7A1.5,1.5,0,0,1,38,45.5H29a1.5,1.5,0,0,1,0-3h9A1.5,1.5,0,0,1,39.5,44Z"/></svg>