<svg xmlns="http://www.w3.org/2000/svg" width="24" height="24" viewBox="0 0 24 24"><defs><style>.a{fill:#1a171b}</style></defs><title>chocolate-white-24-loudhailer</title><path class="a" d="M3.5 8.5H3v4a.5.5 0 0 0 .43.49l3 .43 2.83.58 1.89 1.89a.5.5 0 0 0 .35.15h1a.5.5 0 0 0 .5-.5V5.5a.5.5 0 0 0-.5-.5h-1a.5.5 0 0 0-.35.15L9.26 7 3.42 8a.5.5 0 0 0-.42.5h.5l.08.5 6-1a.5.5 0 0 0 .27-.14L11.71 6H12v9h-.29l-1.86-1.85a.5.5 0 0 0-.26-.15l-3-.57L4 12.07V8.5h-.5l.08.5z"/><path class="a" d="M7.5 18.5v.5h2a.5.5 0 0 0 .49-.6l-1.08-5.16a.5.5 0 0 0-.53-.4L6.46 13a.5.5 0 0 0-.45.6l1 5a.5.5 0 0 0 .49.4v-.5l.5-.1-.9-4.4.9-.12.88 4.12H7.5v.5l.5-.1zM15.15 8.85a4.14 4.14 0 0 1 .47.61 2.07 2.07 0 0 1 .37 1 2.16 2.16 0 0 1-.42 1.1 4.28 4.28 0 0 1-.31.41l-.1.11a.5.5 0 0 0 .71.71 5 5 0 0 0 .56-.7A3.09 3.09 0 0 0 17 10.5a3.09 3.09 0 0 0-.58-1.65 5 5 0 0 0-.56-.7.5.5 0 1 0-.71.71z"/><path class="a" d="M16.28 6.95l.07-.15-.08.14.07-.15-.08.14a3 3 0 0 1 .88.79A4.38 4.38 0 0 1 18 10.5a4.36 4.36 0 0 1-.89 2.81 3.34 3.34 0 0 1-.6.58l-.19.13.08.14-.07-.15.08.14-.07-.15a.5.5 0 0 0 .45.89 3.85 3.85 0 0 0 1.17-1A5.36 5.36 0 0 0 19 10.5a5.36 5.36 0 0 0-1.11-3.44 3.85 3.85 0 0 0-1.17-1 .5.5 0 0 0-.45.89z"/><path class="a" d="M17.22 4.92a6.59 6.59 0 0 1 1.44 1.47 7 7 0 0 1-.07 8.31 7.18 7.18 0 0 1-1 1.05l-.31.26-.08.06a.5.5 0 0 0 .55.83 7.37 7.37 0 0 0 1.65-1.6 8 8 0 0 0 0-9.6 7.37 7.37 0 0 0-1.62-1.62.5.5 0 1 0-.55.83zM9 7.5v6a.5.5 0 0 0 1 0v-6a.5.5 0 0 0-1 0M12.5 9.5l-.35.35.65.65-.65.65.35.35h.5v-2h-.5l-.35.35.35-.35H12v2a.5.5 0 0 0 .85.35l1-1a.5.5 0 0 0 0-.71l-1-1a.5.5 0 0 0-.85.36z"/></svg>