<svg xmlns="http://www.w3.org/2000/svg" width="24" height="24" viewBox="0 0 24 24"><defs><style>.a{fill:#1a171b}</style></defs><title>chocolate-white-24-magic-wand</title><path class="a" d="M16.5 9.5l-.35-.35L5.5 19.79 4.21 18.5 14.5 8.21l1.65 1.65.35-.35-.35-.35.35.35.35-.35-2-2a.5.5 0 0 0-.71 0l-11 11a.5.5 0 0 0 0 .71l2 2a.5.5 0 0 0 .71 0l11-11a.5.5 0 0 0 0-.71z"/><path class="a" d="M13.5 12.5l-6 6-1-3 6-6 1 3z"/><path class="a" d="M13.5 12.5l-.35-.35-5.43 5.42-.65-1.94 5.21-5.21.72 2.24.47-.16-.35-.35.35.35.47-.16-1-3a.5.5 0 0 0-.83-.2l-6 6a.5.5 0 0 0-.12.51l1 3a.5.5 0 0 0 .83.2l6-6a.5.5 0 0 0 .12-.51zM11.85 6.15l-2-2a.5.5 0 1 0-.71.71l2 2a.5.5 0 0 0 .71-.71M19.92 14.22l-2-3a.5.5 0 0 0-.83.55l2 3a.5.5 0 0 0 .83-.55M9.4 8L8 8.3a.5.5 0 0 0 .2 1L9.6 9a.5.5 0 0 0-.2-1M20.6 8.3l-2-.29a.5.5 0 0 0-.14 1l2 .29a.5.5 0 0 0 .14-1M18.46 4.44L17.1 6.19a.5.5 0 1 0 .79.61L19.25 5a.5.5 0 1 0-.79-.61M15 14.5v2a.5.5 0 0 0 1 0v-2a.5.5 0 0 0-1 0M14 2.5v3a.5.5 0 0 0 1 0v-3a.5.5 0 0 0-1 0"/></svg>