<svg xmlns="http://www.w3.org/2000/svg" width="64" height="64" viewBox="0 0 64 64"><defs><style>.a{fill:#1a171b;}</style></defs><title>magic wand</title><path class="a" d="M41.1,18.45a1.5,1.5,0,0,0-2.12,0L8.59,48.83a1.5,1.5,0,0,0,0,2.12l4.11,4.11a1.5,1.5,0,0,0,2.12,0l5.84-5.84L39.44,30.44l5.76-5.76a1.5,1.5,0,0,0,0-2.12ZM40,21.63l2,2-3.64,3.64-2-2ZM13.76,51.88l-2-2,3.72-3.72,2,2Zm15.83-39a1.5,1.5,0,0,1,2.12-2.12l3,3a1.5,1.5,0,0,1-2.12,2.12ZM53.71,32.8a1.5,1.5,0,0,1-2.12,2.12l-5-5a1.5,1.5,0,1,1,2.12-2.12ZM22.15,22.36a1.5,1.5,0,0,1,1.5-1.5h6a1.5,1.5,0,0,1,0,3h-6A1.5,1.5,0,0,1,22.15,22.36Zm35.35,0a1.5,1.5,0,0,1-1.5,1.5H52.65a1.5,1.5,0,0,1,0-3H56A1.5,1.5,0,0,1,57.5,22.36ZM46.71,18.92a1.5,1.5,0,0,1-2.12-2.12l6-6a1.5,1.5,0,1,1,2.12,2.12ZM42.65,33.86v3.35a1.5,1.5,0,0,1-3,0V33.86a1.5,1.5,0,0,1,3,0Zm-3-22V7.51a1.5,1.5,0,1,1,3,0v4.35a1.5,1.5,0,0,1-3,0Z"/></svg>