<svg xmlns="http://www.w3.org/2000/svg" width="64" height="64" viewBox="0 0 64 64"><defs><style>.a{fill:#1a171b;}</style></defs><title>molecule</title><path class="a" d="M25.5,23A2.5,2.5,0,1,1,23,20.5,2.5,2.5,0,0,1,25.5,23Zm-5,18A2.5,2.5,0,1,0,23,38.5,2.5,2.5,0,0,0,20.5,41ZM49,23a8,8,0,0,1-15.86,1.49H30.86a8,8,0,0,1-6.37,6.37s0,.09,0,.14v2s0,.1,0,.14a8,8,0,1,1-3,0s0-.09,0-.14V31s0-.1,0-.14a8,8,0,1,1,9.34-9.34h2.29A8,8,0,0,1,49,23ZM23,36a5,5,0,1,0,5,5A5,5,0,0,0,23,36Zm5-13a5,5,0,1,0-5,5A5,5,0,0,0,28,23Zm18,0a5,5,0,1,0-5,5A5,5,0,0,0,46,23Zm-5-2.5A2.5,2.5,0,1,0,43.5,23,2.5,2.5,0,0,0,41,20.5ZM56,12V52a4,4,0,0,1-4,4H12a4,4,0,0,1-4-4V12a4,4,0,0,1,4-4H52A4,4,0,0,1,56,12Zm-3,0a1,1,0,0,0-1-1H12a1,1,0,0,0-1,1V52a1,1,0,0,0,1,1H52a1,1,0,0,0,1-1Z"/></svg>