<svg xmlns="http://www.w3.org/2000/svg" width="64" height="64" viewBox="0 0 64 64"><defs><style>.a{fill:#1a171b;}</style></defs><title>open in window</title><path class="a" d="M57.06,6.94A1.51,1.51,0,0,0,56,6.5H8A1.5,1.5,0,0,0,6.5,8V32a1.5,1.5,0,0,0,3,0V17.5h45v37H18a1.5,1.5,0,0,0,0,3H56A1.5,1.5,0,0,0,57.5,56V8A1.51,1.51,0,0,0,57.06,6.94ZM9.5,14.5v-5h45v5ZM32,33.5A22.5,22.5,0,0,0,9.5,56a1.5,1.5,0,0,1-3,0A25.5,25.5,0,0,1,32,30.5h1.38l-5.44-5.44a1.5,1.5,0,0,1,2.12-2.12l8,8a1.51,1.51,0,0,1,.19.23h0a1.5,1.5,0,0,1,0,1.66h0a1.51,1.51,0,0,1-.19.23l-8,8a1.5,1.5,0,0,1-2.12-2.12l5.44-5.44ZM15,12a2,2,0,1,1-2-2A2,2,0,0,1,15,12Zm6,0a2,2,0,1,1-2-2A2,2,0,0,1,21,12Zm6,0a2,2,0,1,1-2-2A2,2,0,0,1,27,12Z"/></svg>