<svg xmlns="http://www.w3.org/2000/svg" width="64" height="64" viewBox="0 0 64 64"><defs><style>.a{fill:#1a171b;}</style></defs><title>organism</title><path class="a" d="M29.47,24.29a1.5,1.5,0,0,0,0-.29V23a1.5,1.5,0,0,0,0-.29,4,4,0,1,0-2.94,0,1.5,1.5,0,0,0,0,.29v1a1.5,1.5,0,0,0,0,.29,4,4,0,0,0-2.24,2.24l-.29,0H23l-.29,0a4,4,0,1,0,0,2.94l.29,0h1l.29,0a4,4,0,1,0,5.18-5.18ZM19,29a1,1,0,1,1,1-1A1,1,0,0,1,19,29Zm9-11a1,1,0,1,1-1,1A1,1,0,0,1,28,18Zm0,11a1,1,0,1,1,1-1A1,1,0,0,1,28,29Zm17,3a4,4,0,0,0-3.71,2.53l-.29,0H40l-.29,0a4,4,0,1,0-5.18,5.18,1.5,1.5,0,0,0,0,.29v1a1.5,1.5,0,0,0,0,.29,4,4,0,1,0,2.94,0,1.5,1.5,0,0,0,0-.29V40a1.5,1.5,0,0,0,0-.29,4,4,0,0,0,2.24-2.24l.29,0h1l.29,0A4,4,0,1,0,45,32Zm-9,3a1,1,0,1,1-1,1A1,1,0,0,1,36,35Zm0,11a1,1,0,1,1,1-1A1,1,0,0,1,36,46Zm9-9a1,1,0,1,1,1-1A1,1,0,0,1,45,37ZM52,8H12a4,4,0,0,0-4,4V52a4,4,0,0,0,4,4H52a4,4,0,0,0,4-4V12A4,4,0,0,0,52,8Zm1,44a1,1,0,0,1-1,1H12a1,1,0,0,1-1-1V12a1,1,0,0,1,1-1H52a1,1,0,0,1,1,1Z"/></svg>