<svg xmlns="http://www.w3.org/2000/svg" width="64" height="64" viewBox="0 0 64 64"><defs><style>.a{fill:#1a171b;}</style></defs><title>page</title><path class="a" d="M52,8H12a4,4,0,0,0-4,4V52a4,4,0,0,0,4,4H52a4,4,0,0,0,4-4V12A4,4,0,0,0,52,8Zm1,44a1,1,0,0,1-1,1H12a1,1,0,0,1-1-1V12a1,1,0,0,1,1-1H52a1,1,0,0,1,1,1ZM44.25,23.17h0a1.51,1.51,0,0,0-.19-.23l-8-8a1.51,1.51,0,0,0-.23-.19h0a1.49,1.49,0,0,0-.53-.22l-.29,0H21A1.5,1.5,0,0,0,19.5,16V48A1.5,1.5,0,0,0,21,49.5H43A1.5,1.5,0,0,0,44.5,48V24a1.51,1.51,0,0,0-.25-.83ZM36.5,19.62l2.88,2.88H36.5Zm-14-2.12h11V24A1.5,1.5,0,0,0,35,25.5h6.5v21h-19Z"/></svg>