<svg xmlns="http://www.w3.org/2000/svg" width="24" height="24" viewBox="0 0 24 24"><defs><style>.a{fill:#1a171b}</style></defs><title>chocolate-white-24-parcel-iso-view</title><path class="a" d="M9.5 20.5l.28-.42L4 16.23V8.31l5 2.5v9.69h.5l.28-.42-.28.42h.5v-10a.5.5 0 0 0-.28-.45l-6-3A.5.5 0 0 0 3 7.5v9a.5.5 0 0 0 .22.42l6 4a.5.5 0 0 0 .78-.42z"/><path class="a" d="M20.5 15.5l-.21-.5L10 19.72v-8.84l10-2.73v7.35h.5l-.21-.5.21.46h.5v-8a.5.5 0 0 0-.63-.46l-11 3a.5.5 0 0 0-.37.5v10a.5.5 0 0 0 .71.46l11-5a.5.5 0 0 0 .29-.46z"/><path class="a" d="M18.54 14.08l-.21-.46-3.52 1.6v-2.68l3.19-.89v2.42h.5l-.21-.46.21.46h.5V11a.5.5 0 0 0-.63-.48l-4.23 1.15a.5.5 0 0 0-.37.48V16a.5.5 0 0 0 .71.46l4.23-1.92a.5.5 0 0 0 .29-.46zM3.59 8l10.87-2 5.88 2a.5.5 0 0 0 .32-1l-6-2h-.25l-11 2a.5.5 0 0 0 .18 1z"/></svg>