<svg xmlns="http://www.w3.org/2000/svg" width="64" height="64" viewBox="0 0 64 64"><defs><style>.a{fill:#1a171b;}</style></defs><title>print</title><path class="a" d="M56.06,26.94A1.51,1.51,0,0,0,55,26.5H48.5V18a1.51,1.51,0,0,0-.25-.83h0a1.51,1.51,0,0,0-.19-.23l-8-8a1.51,1.51,0,0,0-.23-.19h0a1.49,1.49,0,0,0-.53-.22L39,8.5H17A1.5,1.5,0,0,0,15.5,10V26.5H9A1.5,1.5,0,0,0,7.5,28V48A1.5,1.5,0,0,0,9,49.5h5.5V54A1.5,1.5,0,0,0,16,55.5H47A1.5,1.5,0,0,0,48.5,54V49.5H55A1.5,1.5,0,0,0,56.5,48V28A1.51,1.51,0,0,0,56.06,26.94ZM40.5,13.62l2.88,2.88H40.5Zm-22-2.12h19V18A1.5,1.5,0,0,0,39,19.5h6.5v7h-27ZM17.5,48h0V43.5h28v9h-28Zm36-1.5h-5V39A1.5,1.5,0,0,0,47,37.5H16A1.5,1.5,0,0,0,14.5,39v7.5h-4v-17h43Z"/></svg>