<svg xmlns="http://www.w3.org/2000/svg" width="24" height="24" viewBox="0 0 24 24"><defs><style>.a{fill:#1a171b}</style></defs><title>chocolate-white-24-printer</title><path class="a" d="M18 18h2.5a.5.5 0 0 0 .5-.56l-.77-6.19A2.56 2.56 0 0 0 17.68 9H6.32a2.56 2.56 0 0 0-2.54 2.24L3 17.44a.5.5 0 0 0 .5.56h2a.5.5 0 0 0 0-1H4.07l.7-5.63A1.56 1.56 0 0 1 6.32 10h11.36a1.56 1.56 0 0 1 1.55 1.37l.7 5.63H18a.5.5 0 0 0 0 1z"/><path class="a" d="M16.5 9.5V9H8V4h5.29L16 6.71V9.5h1v-3a.5.5 0 0 0-.15-.35l-3-3A.5.5 0 0 0 13.5 3h-6a.5.5 0 0 0-.5.5v6a.5.5 0 0 0 .5.5h9a.5.5 0 0 0 .5-.5z"/><path class="a" d="M13 3.5v3a.5.5 0 0 0 .5.5h3a.5.5 0 0 0 0-1H14V3.5a.5.5 0 1 0-1 0zM18 20.5V20H6.07l.88-7H17l.47 7.53h1l-.5-8a.5.5 0 0 0-.5-.47H6.5a.5.5 0 0 0-.5.44l-1 8a.5.5 0 0 0 .5.56H18a.5.5 0 0 0 .5-.53z"/><path class="a" d="M6.5 15h11a.5.5 0 0 0 0-1h-11a.5.5 0 0 0 0 1"/></svg>