<svg xmlns="http://www.w3.org/2000/svg" width="64" height="64" viewBox="0 0 64 64"><defs><style>.a{fill:#1a171b;}</style></defs><title>sandbox</title><path class="a" d="M56,46.5H52a2.36,2.36,0,0,1-1.31-.44,11.89,11.89,0,0,1-2.9-3.27c-1.55-2.28-3.13-5.22-5.07-7.68a14.91,14.91,0,0,0-3.32-3.2,8.91,8.91,0,0,0-1.09-.62l1-5.78H40A1.5,1.5,0,0,0,41.5,24V20A1.5,1.5,0,0,0,40,18.5H10A1.5,1.5,0,0,0,8.5,20v4a1.49,1.49,0,0,0,1.24,1.47A17,17,0,0,0,9,27.28a11.47,11.47,0,0,0-.74,3.84,6.81,6.81,0,0,0,.43,2.45,5.56,5.56,0,0,0,2.6,2.93,7.54,7.54,0,0,0,1.4.56l1.58,9.45H8a1.5,1.5,0,0,0,0,3H56a1.5,1.5,0,0,0,0-3Zm-24.59-25H38.5v1H31.42l0-.09A1.49,1.49,0,0,0,31.41,21.5Zm-19.91,0H28.59l0,.09h0v0c0,.09-.12.41-.29.89H11.5Zm2.27,4H27a25.64,25.64,0,0,1-1.71,3,16.1,16.1,0,0,1-3.92,4.22A9.07,9.07,0,0,1,16,34.5l-.73,0Zm-2,7.51a3.3,3.3,0,0,1-.5-1.9,7.09,7.09,0,0,1,.19-1.52L12,33.38A2.61,2.61,0,0,1,11.72,33ZM16,37.5A12.14,12.14,0,0,0,23.3,35a22.12,22.12,0,0,0,6.25-7.92c.28-.57.53-1.1.74-1.6h5.94l-.84,5c-.13,0-.26,0-.39,0a7.53,7.53,0,0,0-3.46.85,13.28,13.28,0,0,0-4.47,4.14,77.58,77.58,0,0,0-4.55,7.74,16.8,16.8,0,0,1-1.74,2.64,2.93,2.93,0,0,1-.61.56l-.15.07H17.27l-1.5-9Zm8,9c.61-.92,1.19-2,1.79-3.07A46.93,46.93,0,0,1,30,36.55a10.21,10.21,0,0,1,2.41-2.26A4.7,4.7,0,0,1,35,33.5a4.55,4.55,0,0,1,2.1.52,11.08,11.08,0,0,1,3.51,3.26c1.71,2.23,3.27,5.12,4.94,7.54.41.59.83,1.16,1.27,1.68H24Z"/></svg>