<svg xmlns="http://www.w3.org/2000/svg" width="24" height="24" viewBox="0 0 24 24"><defs><style>.a{fill:#1a171b}</style></defs><title>chocolate-white-24-shop</title><path class="a" d="M15.5 8.5H15a2.5 2.5 0 0 0 5 0l-.05-.22-2-4A.5.5 0 0 0 17.5 4h-12a.5.5 0 0 0-.45.28l-2 4L3 8.5a2.5 2.5 0 0 0 5 0 .5.5 0 1 0-1 0 2.5 2.5 0 0 0 5 0 .5.5 0 1 0-1 0 2.5 2.5 0 0 0 5 0 .5.5 0 1 0-1 0 1.5 1.5 0 0 1-3 0 .5.5 0 1 0-1 0 1.5 1.5 0 0 1-3 0 .5.5 0 1 0-1 0 1.5 1.5 0 0 1-3 0h-.5l.45.22L5.81 5h11.38l1.86 3.72.45-.22H19a1.5 1.5 0 0 1-3 0 .5.5 0 1 0-1 0z"/><path class="a" d="M4 10.5v9a.5.5 0 0 0 1 0v-9a.5.5 0 0 0-1 0M18 10.5v7a.5.5 0 0 0 1 0v-7a.5.5 0 0 0-1 0M6 10.5v5a.5.5 0 0 0 .5.5h10a.5.5 0 0 0 .5-.5v-5a.5.5 0 1 0-1 0V15H7v-4.5a.5.5 0 1 0-1 0zM8 8.62l1-4a.5.5 0 0 0-1-.24l-1 4a.5.5 0 0 0 1 .24M16 8.38l-1-4a.5.5 0 0 0-1 .24l1 4a.5.5 0 0 0 1-.24M12 8.5v-4a.5.5 0 0 0-1 0v4a.5.5 0 0 0 1 0"/><path class="a" d="M20.5 17.5V17h-6a.5.5 0 0 0-.5.5v3a.5.5 0 0 0 .5.5h6a.5.5 0 0 0 .5-.5v-3a.5.5 0 0 0-.5-.5v.5H20V20h-5v-2h5.5v-.5z"/><path class="a" d="M14.5 19.5V19h-11a.5.5 0 1 0 0 1h11a.5.5 0 1 0 0-1h-11a.5.5 0 1 0 0 1h11a.5.5 0 1 0 0-1z"/></svg>