<svg xmlns="http://www.w3.org/2000/svg" width="24" height="24" viewBox="0 0 24 24"><defs><style>.a{fill:#1a171b}</style></defs><title>chocolate-white-24-timer</title><path class="a" d="M4.5 12.5H5a6.5 6.5 0 1 1 1.9 4.6A6.48 6.48 0 0 1 5 12.5H4A7.5 7.5 0 1 0 11.5 5 7.5 7.5 0 0 0 4 12.5zM10.5 4h2a.5.5 0 0 0 0-1h-2a.5.5 0 0 0 0 1M17.51 5.08l1.41 1.41a.5.5 0 0 0 .71-.71l-1.41-1.41a.5.5 0 1 0-.71.71M4.08 6.49l1.41-1.41a.5.5 0 1 0-.71-.71L3.37 5.78a.5.5 0 1 0 .71.71"/><path class="a" d="M11.85 12.85l3-3a.5.5 0 0 0-.71-.71l-3 3a.5.5 0 1 0 .71.71"/></svg>