<svg xmlns="http://www.w3.org/2000/svg" width="64" height="64" viewBox="0 0 64 64"><defs><style>.a{fill:#1a171b;}</style></defs><title>upload</title><path class="a" d="M45,45.89a1.5,1.5,0,1,1-2,2.21l-9.49-8.7V56a1.5,1.5,0,0,1-3,0V39.41L21,48.11a1.5,1.5,0,1,1-2-2.21l12-11,0,0a1.49,1.49,0,0,1,.43-.27l.05,0a1.49,1.49,0,0,1,.5-.09h0a1.49,1.49,0,0,1,.5.09l.05,0a1.49,1.49,0,0,1,.43.27l0,0,12,11ZM53.5,21A9.5,9.5,0,0,1,44,30.5H18a7.5,7.5,0,1,1,0-15,7.32,7.32,0,0,1,1,.08,11.47,11.47,0,0,1,20.51-3A9.49,9.49,0,0,1,53.5,21Zm-3,0A6.49,6.49,0,0,0,40,15.91a1.5,1.5,0,0,1-2.29-.53,8.49,8.49,0,0,0-16.06,2.26,1.5,1.5,0,0,1-2,1.16A4.5,4.5,0,1,0,18,27.5H44A6.5,6.5,0,0,0,50.5,21Z"/></svg>