<svg xmlns="http://www.w3.org/2000/svg" xmlns:xlink="http://www.w3.org/1999/xlink" width="64" height="64" viewBox="0 0 64 64"><defs><style>.a,.c{fill:none;}.b{clip-path:url(#a);}.c{stroke:#1a171b;stroke-miterlimit:10;}.d{fill:#1a171b;}</style><clipPath id="a"><circle class="a" cx="32" cy="-52" r="28"/></clipPath></defs><title>Chocolate-White-molecule</title><g class="b"><path class="c" d="M-18,6A50,50,0,0,1,82,6"/></g><path class="d" d="M23,16a7,7,0,1,1-7,7,7,7,0,0,1,7-7m0-1a8,8,0,1,0,8,8,8,8,0,0,0-8-8Z"/><path class="d" d="M23,21.5A1.5,1.5,0,1,1,21.5,23,1.5,1.5,0,0,1,23,21.5m0-1A2.5,2.5,0,1,0,25.5,23,2.5,2.5,0,0,0,23,20.5Z"/><path class="d" d="M23,34a7,7,0,1,1-7,7,7,7,0,0,1,7-7m0-1a8,8,0,1,0,8,8,8,8,0,0,0-8-8Z"/><path class="d" d="M23,39.5A1.5,1.5,0,1,1,21.5,41,1.5,1.5,0,0,1,23,39.5m0-1A2.5,2.5,0,1,0,25.5,41,2.5,2.5,0,0,0,23,38.5Z"/><path class="d" d="M41,16a7,7,0,1,1-7,7,7,7,0,0,1,7-7m0-1a8,8,0,1,0,8,8,8,8,0,0,0-8-8Z"/><path class="d" d="M41,21.5A1.5,1.5,0,1,1,39.5,23,1.5,1.5,0,0,1,41,21.5m0-1A2.5,2.5,0,1,0,43.5,23,2.5,2.5,0,0,0,41,20.5Z"/><path class="d" d="M52,9a3,3,0,0,1,3,3V52a3,3,0,0,1-3,3H12a3,3,0,0,1-3-3V12a3,3,0,0,1,3-3H52m0-1H12a4,4,0,0,0-4,4V52a4,4,0,0,0,4,4H52a4,4,0,0,0,4-4V12a4,4,0,0,0-4-4Z"/><line class="c" x1="31" y1="23" x2="33" y2="23"/><line class="c" x1="23" y1="31" x2="23" y2="33"/></svg>