<svg xmlns="http://www.w3.org/2000/svg" width="64" height="64" viewBox="0 0 64 64"><defs><style>.a{fill:#1a171b;}.b{fill:none;stroke:#1a171b;stroke-miterlimit:10;}</style></defs><title>Chocolate-White-page</title><path class="a" d="M52,9a3,3,0,0,1,3,3V52a3,3,0,0,1-3,3H12a3,3,0,0,1-3-3V12a3,3,0,0,1,3-3H52m0-1H12a4,4,0,0,0-4,4V52a4,4,0,0,0,4,4H52a4,4,0,0,0,4-4V12a4,4,0,0,0-4-4Z"/><polygon class="b" points="43 48 21 48 21 16 35 16 43 24 43 48"/><polyline class="b" points="35 16 35 24 43 24"/></svg>