<svg xmlns="http://www.w3.org/2000/svg" width="64" height="64" viewBox="0 0 64 64"><defs><style>.a{fill:none;stroke:#1a171b;stroke-miterlimit:10;}.b{fill:#1a171b;}</style></defs><title>Chocolate-White-open in window</title><polyline class="a" points="18 56 56 56 56 8 8 8 8 32"/><polyline class="a" points="29 24 37 32 29 40"/><path class="a" d="M37,32H32A24,24,0,0,0,8,56"/><path class="b" d="M13,11a1,1,0,1,1-1,1,1,1,0,0,1,1-1m0-1a2,2,0,1,0,2,2,2,2,0,0,0-2-2Z"/><path class="b" d="M19,11a1,1,0,1,1-1,1,1,1,0,0,1,1-1m0-1a2,2,0,1,0,2,2,2,2,0,0,0-2-2Z"/><path class="b" d="M25,11a1,1,0,1,1-1,1,1,1,0,0,1,1-1m0-1a2,2,0,1,0,2,2,2,2,0,0,0-2-2Z"/><line class="a" x1="8" y1="16" x2="56" y2="16"/></svg>