<svg xmlns="http://www.w3.org/2000/svg" width="64" height="64" viewBox="0 0 64 64"><defs><style>.a{fill:#1a171b;}.b{fill:none;stroke:#1a171b;stroke-miterlimit:10;}</style></defs><title>Chocolate-White-organism</title><path class="a" d="M28,25a3,3,0,1,1-3,3,3,3,0,0,1,3-3m0-1a4,4,0,1,0,4,4,4,4,0,0,0-4-4Z"/><path class="a" d="M28,16a3,3,0,1,1-3,3,3,3,0,0,1,3-3m0-1a4,4,0,1,0,4,4,4,4,0,0,0-4-4Z"/><path class="a" d="M19,25a3,3,0,1,1-3,3,3,3,0,0,1,3-3m0-1a4,4,0,1,0,4,4,4,4,0,0,0-4-4Z"/><path class="a" d="M36,33a3,3,0,1,1-3,3,3,3,0,0,1,3-3m0-1a4,4,0,1,0,4,4,4,4,0,0,0-4-4Z"/><path class="a" d="M36,42a3,3,0,1,1-3,3,3,3,0,0,1,3-3m0-1a4,4,0,1,0,4,4,4,4,0,0,0-4-4Z"/><path class="a" d="M45,33a3,3,0,1,1-3,3,3,3,0,0,1,3-3m0-1a4,4,0,1,0,4,4,4,4,0,0,0-4-4Z"/><path class="a" d="M52,9a3,3,0,0,1,3,3V52a3,3,0,0,1-3,3H12a3,3,0,0,1-3-3V12a3,3,0,0,1,3-3H52m0-1H12a4,4,0,0,0-4,4V52a4,4,0,0,0,4,4H52a4,4,0,0,0,4-4V12a4,4,0,0,0-4-4Z"/><line class="b" x1="23" y1="28" x2="24" y2="28"/><line class="b" x1="28" y1="23" x2="28" y2="24"/><line class="b" x1="40" y1="36" x2="41" y2="36"/><line class="b" x1="36" y1="40" x2="36" y2="41"/></svg>