<svg xmlns="http://www.w3.org/2000/svg" xmlns:xlink="http://www.w3.org/1999/xlink" width="64" height="64" viewBox="0 0 64 64"><defs><style>.a,.b{fill:none;}.b{stroke:#1a171b;stroke-miterlimit:10;}.c{clip-path:url(#a);}</style><clipPath id="a"><circle class="a" cx="32" cy="32" r="28"/></clipPath></defs><title>Chocolate-White-globe</title><circle class="b" cx="32" cy="32" r="28"/><g class="c"><path class="b" d="M60-14A28,28,0,0,1,32,14,28,28,0,0,1,4-14"/><path class="b" d="M82-26A50,50,0,0,1,32,24,50,50,0,0,1-18-26"/><path class="b" d="M-18,90A50,50,0,0,1,82,90"/><path class="b" d="M4,78a28,28,0,0,1,56,0"/><path class="b" d="M61,74.65a42.65,42.65,0,1,1,0-85.29"/><path class="b" d="M3-10.65A42.65,42.65,0,0,1,3,74.65"/><line class="b" x1="32" y1="4" x2="32" y2="60"/></g><line class="b" x1="4" y1="32" x2="60" y2="32"/></svg>