<svg xmlns="http://www.w3.org/2000/svg" width="24" height="24" viewBox="0 0 24 24"><defs><style>.a{fill:#1a171b}</style></defs><title>chocolate-white-24-atomic-atom</title><path class="a" d="M18 8.41A7 7 0 1 1 15.6 6a.5.5 0 0 0 .52-.86 8 8 0 1 0 2.75 2.76.5.5 0 1 0-.86.51z"/><path class="a" d="M15.5 6.5H15A2.5 2.5 0 1 0 17.5 4 2.5 2.5 0 0 0 15 6.5h1A1.5 1.5 0 1 1 17.5 8 1.5 1.5 0 0 1 16 6.5zM9.86 12h-.5A2.64 2.64 0 1 0 12 9.36 2.64 2.64 0 0 0 9.36 12h1A1.64 1.64 0 1 1 12 13.64 1.64 1.64 0 0 1 10.36 12z"/></svg>