<svg xmlns="http://www.w3.org/2000/svg" width="24" height="24" viewBox="0 0 24 24"><defs><style>.a{fill:#1a171b}</style></defs><title>chocolate-white-24-atomic-organism-circled</title><path class="a" d="M18.5 22.5V22h-13A3.51 3.51 0 0 1 2 18.5v-13A3.51 3.51 0 0 1 5.5 2h13A3.51 3.51 0 0 1 22 5.5v13a3.51 3.51 0 0 1-3.5 3.5v1a4.51 4.51 0 0 0 4.5-4.5v-13A4.51 4.51 0 0 0 18.5 1h-13A4.51 4.51 0 0 0 1 5.5v13A4.51 4.51 0 0 0 5.5 23h13z"/><path class="a" d="M5.5 7.5H6A1.5 1.5 0 1 1 7.5 9 1.5 1.5 0 0 1 6 7.5H5A2.5 2.5 0 1 0 7.5 5 2.5 2.5 0 0 0 5 7.5z"/><path class="a" d="M9.5 7.5h.5A1.5 1.5 0 1 1 11.5 9 1.5 1.5 0 0 1 10 7.5H9A2.5 2.5 0 1 0 11.5 5 2.5 2.5 0 0 0 9 7.5zM5.5 11.5H6A1.5 1.5 0 1 1 7.5 13 1.5 1.5 0 0 1 6 11.5H5A2.5 2.5 0 1 0 7.5 9 2.5 2.5 0 0 0 5 11.5zM11.5 13.5h.5a1.5 1.5 0 1 1 1.5 1.5 1.5 1.5 0 0 1-1.5-1.5h-1a2.5 2.5 0 1 0 2.5-2.5 2.5 2.5 0 0 0-2.5 2.5z"/><path class="a" d="M15.5 13.5h.5a1.5 1.5 0 1 1 1.5 1.5 1.5 1.5 0 0 1-1.5-1.5h-1a2.5 2.5 0 1 0 2.5-2.5 2.5 2.5 0 0 0-2.5 2.5zM11.5 17.5h.5a1.5 1.5 0 1 1 1.5 1.5 1.5 1.5 0 0 1-1.5-1.5h-1a2.5 2.5 0 1 0 2.5-2.5 2.5 2.5 0 0 0-2.5 2.5z"/></svg>