<svg xmlns="http://www.w3.org/2000/svg" width="24" height="24" viewBox="0 0 24 24"><defs><style>.a{fill:#1a171b}</style></defs><title>chocolate-white-24-basket</title><path class="a" d="M18.5 19.5V19H5.9l-1.78-8h15.76L18 19.39l.49.11.49.11 2-9a.5.5 0 0 0-.48-.61h-17a.5.5 0 0 0-.49.61l2 9a.5.5 0 0 0 .49.39h13a.5.5 0 0 0 .49-.39z"/><path class="a" d="M4.5 14h15a.5.5 0 0 0 0-1h-15a.5.5 0 0 0 0 1M5.5 17h13a.5.5 0 0 0 0-1h-13a.5.5 0 0 0 0 1M9 10.58v-.25a20.6 20.6 0 0 1 .88-3.22 6.54 6.54 0 0 1 .81-1.58 1.81 1.81 0 0 1 .43-.42.62.62 0 0 1 .38-.11.67.67 0 0 1 .4.16 3.37 3.37 0 0 1 .85 1.2 14.84 14.84 0 0 1 .93 2.75c.11.42.18.8.24 1.06s.08.42.08.42a.5.5 0 0 0 1-.16 22.94 22.94 0 0 0-.77-3.08 9.43 9.43 0 0 0-1-2.18 3.23 3.23 0 0 0-.73-.8 1.59 1.59 0 0 0-2 0 4.27 4.27 0 0 0-1.16 1.55A19.73 19.73 0 0 0 8 10.42a.5.5 0 1 0 1 .16z"/></svg>