<svg xmlns="http://www.w3.org/2000/svg" width="24" height="24" viewBox="0 0 24 24"><defs><style>.a{fill:#1a171b}</style></defs><title>chocolate-white-24-document</title><path class="a" d="M17.5 20.5V20H7V4h6.09L17 7.59V20.5h1V7.38a.5.5 0 0 0-.16-.38l-4.22-3.87a.5.5 0 0 0-.34-.13H6.5a.5.5 0 0 0-.5.5v17a.5.5 0 0 0 .5.5h11a.5.5 0 0 0 .5-.5z"/><path class="a" d="M13 3.5v3a.5.5 0 0 0 .38.49l4 1a.5.5 0 1 0 .24-1L14 6.11V3.5a.5.5 0 1 0-1 0zM9.5 8h1a.5.5 0 0 0 0-1h-1a.5.5 0 0 0 0 1M9.5 11h5a.5.5 0 0 0 0-1h-5a.5.5 0 0 0 0 1M9.5 14h5a.5.5 0 0 0 0-1h-5a.5.5 0 0 0 0 1M9.5 17h3a.5.5 0 0 0 0-1h-3a.5.5 0 0 0 0 1"/></svg>