<svg xmlns="http://www.w3.org/2000/svg" width="24" height="24" viewBox="0 0 24 24"><defs><style>.a{fill:#1a171b}</style></defs><title>chocolate-white-24-gears</title><path class="a" d="M13.85 14.8h.5v-.09h-.5l.27.42 1.48-.94a.5.5 0 0 0 .23-.5 6.62 6.62 0 0 0-.61-1.87.5.5 0 0 0-.48-.28l-1.74.11v.5l.39-.32v-.06l-.42.27.46.18.57-1.67a.5.5 0 0 0-.12-.54 6.69 6.69 0 0 0-1.58-1.15.5.5 0 0 0-.55.06L10.42 10l.32.39.13-.48h-.08l-.18.46.48-.12-.44-1.7a.5.5 0 0 0-.41-.37 6.81 6.81 0 0 0-1-.08 6.8 6.8 0 0 0-1 .08.5.5 0 0 0-.41.37l-.44 1.7.48.12-.17-.47h-.08l.13.48L8 10 6.67 8.92a.5.5 0 0 0-.55-.06A6.7 6.7 0 0 0 4.54 10a.5.5 0 0 0-.12.54l.65 1.64.46-.18-.42-.27v.06l.39.32v-.5l-1.75-.11a.5.5 0 0 0-.48.28 6.65 6.65 0 0 0-.61 1.86.5.5 0 0 0 .23.51l1.48.94.27-.42h-.5v.23h.5l-.27-.42-1.48.94a.5.5 0 0 0-.22.5 6.66 6.66 0 0 0 .6 1.86.5.5 0 0 0 .48.28l1.75-.11v-.5l-.5.31v.06l.42-.27-.46-.18L4.42 19a.5.5 0 0 0 .12.54 6.74 6.74 0 0 0 1.58 1.15.5.5 0 0 0 .55-.06L8 19.55l-.32-.39-.13.48h.08l.18-.46-.48.12.5 1.7a.5.5 0 0 0 .41.37 6.66 6.66 0 0 0 1 .08 6.67 6.67 0 0 0 1-.08.5.5 0 0 0 .41-.37l.44-1.7-.48-.12.18.46h.08l-.13-.48-.32.39 1.36 1.12a.5.5 0 0 0 .55.06 6.72 6.72 0 0 0 1.58-1.15A.5.5 0 0 0 14 19l-.65-1.64-.46.18.42.27v-.06l-.31-.31v.5l1.75.11a.5.5 0 0 0 .48-.28 6.63 6.63 0 0 0 .61-1.87.5.5 0 0 0-.23-.5l-1.48-.94-.27.42h.5v-.14h-1v.09a.5.5 0 0 0 .23.45l1.48.94.27-.42-.49-.08a5.62 5.62 0 0 1-.51 1.58l.45.22v-.5l-1.75-.11a.5.5 0 0 0-.41.18l-.07.08v.11a.5.5 0 0 0 0 .45l.65 1.64.46-.18-.35-.36a5.72 5.72 0 0 1-1.35 1l.23.44.32-.39-1.36-1.12a.5.5 0 0 0-.44-.1h-.24a.5.5 0 0 0-.3.34l-.44 1.7.48.12-.07-.49a5.68 5.68 0 0 1-.83.07 5.68 5.68 0 0 1-.83-.07l-.07.49.48-.12-.44-1.7a.5.5 0 0 0-.3-.34h-.24a.5.5 0 0 0-.44.1L6 19.9l.32.39.23-.44a5.74 5.74 0 0 1-1.35-1l-.35.36.46.18.69-1.62a.5.5 0 0 0 0-.45v-.11l-.07-.08a.5.5 0 0 0-.41-.18l-1.75.11v.5l.45-.22a5.66 5.66 0 0 1-.51-1.58l-.49.08.27.42 1.48-.94a.5.5 0 0 0 .23-.45v-.13a.5.5 0 0 0-.23-.45l-1.48-.94-.27.42.49.08a5.65 5.65 0 0 1 .51-1.58L3.67 12v.5l1.75.11a.5.5 0 0 0 .42-.18l.07-.08v-.06a.5.5 0 0 0 0-.45l-.65-1.64-.46.18.35.36a5.7 5.7 0 0 1 1.35-1l-.15-.44-.35.39 1.36 1.12a.5.5 0 0 0 .44.1h.24a.5.5 0 0 0 .3-.34l.44-1.7-.48-.12.07.49a5.82 5.82 0 0 1 .84-.07 5.82 5.82 0 0 1 .84.07l.07-.49-.48.12.44 1.7a.5.5 0 0 0 .3.34h.24a.5.5 0 0 0 .44-.1l1.36-1.12-.32-.39-.23.44a5.69 5.69 0 0 1 1.35 1l.35-.36-.46-.18-.65 1.64a.5.5 0 0 0 0 .45v.06l.07.08a.5.5 0 0 0 .42.18l1.75-.11V12l-.45.22a5.61 5.61 0 0 1 .51 1.58l.49-.08-.27-.42-1.48.94a.5.5 0 0 0-.23.45v.09h.5-.5zm-5.61-1l.32.39.2-.17-.32-.39.28.41a.88.88 0 0 1 1 0 .88.88 0 0 1 .24.24.87.87 0 0 1 .15.49.88.88 0 0 1-1.76 0 .87.87 0 0 1 .15-.49L8.08 14l.39.32.17-.2-.39-.32.32.39-.32-.39-.39-.32-.17.2a1.88 1.88 0 1 0 3.11 0 1.88 1.88 0 0 0-.51-.51 1.88 1.88 0 0 0-2.1 0l-.2.17-.07.07zM21.46 6.1L22 6a4.45 4.45 0 0 0-.58-1.8.5.5 0 0 0-.47-.2h-1.23v.5l.37-.34a3.51 3.51 0 0 0-1.18-.86l-.2.46.48-.15-.38-1.17a.5.5 0 0 0-.37-.33 4.4 4.4 0 0 0-1.87 0 .5.5 0 0 0-.37.33l-.39 1.16.48.15-.2-.46a3.51 3.51 0 0 0-1.18.86l.37.34V4h-1.23a.5.5 0 0 0-.43.25A4.45 4.45 0 0 0 13 6a.5.5 0 0 0 .2.45l1 .72.29-.4-.5.05a3.46 3.46 0 0 0 .44 1.37l.48-.19-.48-.15L14.06 9a.5.5 0 0 0 .1.49 4.49 4.49 0 0 0 1.51 1.11.5.5 0 0 0 .5-.05l1-.72-.29-.4-.11.49a3.41 3.41 0 0 0 1.47 0l-.11-.49-.29.4 1 .72a.5.5 0 0 0 .5.05 4.49 4.49 0 0 0 1.51-1.11.5.5 0 0 0 .1-.49l-.38-1.17-.48.17.43.25A3.46 3.46 0 0 0 21 6.87l-.5-.05.29.4 1-.72A.5.5 0 0 0 22 6l-.5.05-.29-.4-1 .72a.5.5 0 0 0-.2.35 2.46 2.46 0 0 1-.32 1 .5.5 0 0 0 0 .4L20 9.31l.48-.15-.37-.33a3.49 3.49 0 0 1-1.18.87l.2.46.29-.4-1-.72a.5.5 0 0 0-.4-.08 2.41 2.41 0 0 1-1.05 0 .5.5 0 0 0-.4.08l-1 .72.29.4.2-.46a3.49 3.49 0 0 1-1.18-.87l-.37.33.48.15.38-1.17a.5.5 0 0 0 0-.4 2.46 2.46 0 0 1-.32-1 .5.5 0 0 0-.2-.35l-1-.72-.29.4.5.05a3.45 3.45 0 0 1 .45-1.39l-.43-.25V5h1.22a.5.5 0 0 0 .37-.16 2.51 2.51 0 0 1 .84-.62.5.5 0 0 0 .27-.3l.38-1.17-.48-.15.1.49a3.4 3.4 0 0 1 1.45 0l.1-.49-.48.15.38 1.17a.5.5 0 0 0 .27.3 2.51 2.51 0 0 1 .84.62.5.5 0 0 0 .37.16h1.22v-.5l-.43.25a3.45 3.45 0 0 1 .5 1.4l.5-.05-.29-.4zm-4 1.84v-.5a.94.94 0 1 1 .94-.94.94.94 0 0 1-.94.94v1a1.94 1.94 0 1 0-1.9-1.94 1.94 1.94 0 0 0 1.94 1.94z"/></svg>