<svg xmlns="http://www.w3.org/2000/svg" width="24" height="24" viewBox="0 0 24 24"><defs><style>.a{fill:#1a171b}</style></defs><title>chocolate-white-24-list</title><path class="a" d="M6.5 11.5H6a.5.5 0 1 1-.5-.5.5.5 0 0 1 .5.5h1A1.5 1.5 0 1 0 5.5 13 1.5 1.5 0 0 0 7 11.5zM6.5 7.5H6a.5.5 0 1 1-.5-.5.5.5 0 0 1 .5.5h1A1.5 1.5 0 1 0 5.5 9 1.5 1.5 0 0 0 7 7.5zM6.5 15.5H6a.5.5 0 1 1-.5-.5.5.5 0 0 1 .5.5h1A1.5 1.5 0 1 0 5.5 17 1.5 1.5 0 0 0 7 15.5zM9.5 8h8a.5.5 0 0 0 0-1h-8a.5.5 0 0 0 0 1M9.5 12h11a.5.5 0 0 0 0-1h-11a.5.5 0 0 0 0 1M9.5 16h7a.5.5 0 0 0 0-1h-7a.5.5 0 0 0 0 1"/></svg>