<svg xmlns="http://www.w3.org/2000/svg" width="24" height="24" viewBox="0 0 24 24"><defs><style>.a{fill:#1a171b}</style></defs><title>chocolate-white-24-toggle-switch-on</title><path class="a" d="M20.5 6.5V6h-17A1.5 1.5 0 0 0 2 7.5v9A1.5 1.5 0 0 0 3.5 18h17a1.5 1.5 0 0 0 1.5-1.5v-9A1.5 1.5 0 0 0 20.5 6v1a.51.51 0 0 1 .5.5v9a.51.51 0 0 1-.5.5h-17a.51.51 0 0 1-.5-.5v-9a.51.51 0 0 1 .5-.5h17zm-9 8H11a.51.51 0 0 1-.5.5h-5a.5.5 0 0 1-.5-.5v-5a.5.5 0 0 1 .5-.5h5a.5.5 0 0 1 .5.5v5h1v-5A1.5 1.5 0 0 0 10.5 8h-5A1.5 1.5 0 0 0 4 9.5v5A1.5 1.5 0 0 0 5.5 16h5a1.5 1.5 0 0 0 1.5-1.5z"/><path class="a" d="M16 9.5v5a.5.5 0 0 0 1 0v-5a.5.5 0 0 0-1 0"/></svg>