<svg xmlns="http://www.w3.org/2000/svg" width="24" height="24" viewBox="0 0 24 24"><defs><style>.a{fill:#1a171b}</style></defs><title>chocolate-white-24-unicorn</title><path class="a" d="M7.95 8.28l-2-4 3.24 2.61a.5.5 0 0 0 .62-.78l-5-4a.5.5 0 0 0-.76.61l3 6a.5.5 0 0 0 .89-.45z"/><path class="a" d="M17 20.34a15.3 15.3 0 0 0-2.45-4.27 22.61 22.61 0 0 0-1.67-1.92.5.5 0 0 0-.71 0l-.13.13a21.26 21.26 0 0 1-1.89 1.66 9.29 9.29 0 0 1-1.26.83 2.3 2.3 0 0 1-1 .32h-.18a.5.5 0 0 0-.58.09 4.83 4.83 0 0 1-.82.62 3.28 3.28 0 0 1-1.63.51 2.11 2.11 0 0 1-1-.23 1.43 1.43 0 0 1-.62-.54 1.28 1.28 0 0 1-.17-.67 3.12 3.12 0 0 1 .92-2 18.18 18.18 0 0 0 2.58-3.6 17.31 17.31 0 0 1 2.42-3.4A3 3 0 0 1 10 7.1a2.11 2.11 0 0 1 .4-.1h.11a.5.5 0 0 0 .49-.34v-.12A11.83 11.83 0 0 1 11.71 5a3.9 3.9 0 0 1 .51-.75l.21-.25h.07v-.5l-.45.22a4.09 4.09 0 0 1 .38 1.53 1.18 1.18 0 0 1-.3.87.5.5 0 0 0 .37.88 18.13 18.13 0 0 1 4.38.49 9.93 9.93 0 0 1 1.07.33l.26.1h.06l.22-.45-.22-.45-2 1a.5.5 0 0 0 .1.93 5.75 5.75 0 0 1 3.23 1.7 1.93 1.93 0 0 1 .35.63v.16h.5V11h-2a.5.5 0 0 0-.16 1 4.07 4.07 0 0 1 2.35 1.66 2.27 2.27 0 0 1 .27.65v.18a.5.5 0 0 0 1 0 2.88 2.88 0 0 0-.45-1.38 5.06 5.06 0 0 0-2.8-2.11l-.16.47V12h2a.5.5 0 0 0 .5-.5 2.46 2.46 0 0 0-.61-1.44 6.71 6.71 0 0 0-3.77-2l-.12.49.22.45 2-1a.5.5 0 0 0 0-.89A14.94 14.94 0 0 0 12.5 6v.5l.35.35a2.17 2.17 0 0 0 .59-1.58 5 5 0 0 0-.5-2A.5.5 0 0 0 12.5 3a1.17 1.17 0 0 0-.65.21 2.88 2.88 0 0 0-.76.83A11.75 11.75 0 0 0 10 6.34l.47.16V6a3.58 3.58 0 0 0-2.32 1.15 18.18 18.18 0 0 0-2.58 3.6 17.31 17.31 0 0 1-2.42 3.4 4.08 4.08 0 0 0-1.21 2.7A2.28 2.28 0 0 0 2.25 18a2.43 2.43 0 0 0 1 .92 3.12 3.12 0 0 0 1.41.33 4.33 4.33 0 0 0 2.25-.72 5.6 5.6 0 0 0 .92-.71l-.33-.32-.22.45a1.4 1.4 0 0 0 .63.14 3.48 3.48 0 0 0 1.64-.55 18.68 18.68 0 0 0 3.32-2.69l-.36-.35-.35.35.12.13A18 18 0 0 1 16 20.66a.5.5 0 1 0 .95-.32z"/><path class="a" d="M8.24 10.36l.49-.11 1.46-.34-.11-.49-.4-.31-.15.19c-.14.17-.35.43-.55.65l-.26.26-.07.06.14.23-.06-.26h-.08l.14.23-.06-.26-.49.11-.49.11a1 1 0 0 0 1 .77h.23a.84.84 0 0 0 .32-.17 6 6 0 0 0 .77-.8c.24-.28.43-.53.43-.53a.5.5 0 0 0-.5-.76l-1.5.34a1 1 0 0 0-.77 1v.23z"/></svg>