<svg xmlns="http://www.w3.org/2000/svg" width="24" height="24" viewBox="0 0 24 24"><defs><style>.a{fill:#1a171b}</style></defs><title>chocolate-white-24-atomic-atom-circled</title><path class="a" d="M19.5 12H19a7 7 0 1 1-2.05-4.95A7 7 0 0 1 19 12h1a8 8 0 1 0-8 8 8 8 0 0 0 8-8z"/><path class="a" d="M15.21 7.18h-.5a2.11 2.11 0 1 0 2.11-2.11 2.11 2.11 0 0 0-2.11 2.11h1a1.11 1.11 0 1 1 1.11 1.11 1.11 1.11 0 0 1-1.11-1.11zM9.86 12h-.5A2.64 2.64 0 1 0 12 9.36 2.64 2.64 0 0 0 9.36 12h1A1.64 1.64 0 1 1 12 13.64 1.64 1.64 0 0 1 10.36 12z"/><path class="a" d="M18.5 22.5V22h-13A3.51 3.51 0 0 1 2 18.5v-13A3.51 3.51 0 0 1 5.5 2h13A3.51 3.51 0 0 1 22 5.5v13a3.51 3.51 0 0 1-3.5 3.5v1a4.51 4.51 0 0 0 4.5-4.5v-13A4.51 4.51 0 0 0 18.5 1h-13A4.51 4.51 0 0 0 1 5.5v13A4.51 4.51 0 0 0 5.5 23h13z"/></svg>