<svg xmlns="http://www.w3.org/2000/svg" width="24" height="24" viewBox="0 0 24 24">
  <path d="M14 1a1 1 0 0 1 .707.293l6 6A1 1 0 0 1 21 8v12a3 3 0 0 1-3 3H6c-1.652 0-3-1.348-3-3V4a3 3 0 0 1 3-3zm-1 2H6a1 1 0 0 0-1 1v16c0 .548.452 1 1 1h12a1 1 0 0 0 1-1V9h-5a1 1 0 0 1-.993-.883L13 8V3zm3 13a1 1 0 0 1 .117 1.993L16 18H8a1 1 0 0 1-.117-1.993L8 16h8zm0-4a1 1 0 0 1 .117 1.993L16 14H8a1 1 0 0 1-.117-1.993L8 12h8zm-6-4a1 1 0 0 1 .117 1.993L10 10H8a1 1 0 0 1-.117-1.993L8 8h2zm7.585-1L15 4.415V7h2.585z"/>
</svg>
