<svg xmlns="http://www.w3.org/2000/svg" width="24" height="24" viewBox="0 0 24 24">
  <path d="M10.15 7.997l.275.013a6 6 0 0 1 4.376 2.391 1 1 0 1 1-1.602 1.198 4 4 0 0 0-5.864-.59l-.168.158-2.988 2.988a4 4 0 0 0 .049 5.607 3.998 3.998 0 0 0 5.43.211l.165-.15 1.71-1.71a1 1 0 0 1 1.497 1.32l-.083.094-1.722 1.722a6 6 0 0 1-8.648-8.306l.176-.19 3-3a6 6 0 0 1 4.398-1.756zm11.036-5.173a6.003 6.003 0 0 1 .237 8.233l-.176.19-3 3a6 6 0 0 1-9.048-.648 1 1 0 1 1 1.602-1.198 4 4 0 0 0 5.864.59l.168-.158 2.988-2.988a4 4 0 0 0-.049-5.607 3.999 3.999 0 0 0-5.432-.21l-.165.151-1.72 1.71a1 1 0 0 1-1.494-1.324l.084-.094 1.73-1.72a6 6 0 0 1 8.411.073z"/>
</svg>
