<svg xmlns="http://www.w3.org/2000/svg" width="24" height="24" viewBox="0 0 24 24">
  <path d="M10 5a1 1 0 0 1 .117 1.993L10 7H5c-.509 0-.935.39-.993.884L4 8v11a1 1 0 0 0 .883.993L5 20h11a1 1 0 0 0 .993-.883L17 19v-5a1 1 0 0 1 1.993-.117L19 14v5a3 3 0 0 1-2.824 2.995L16 22H5a3 3 0 0 1-2.995-2.824L2 19V8a3.007 3.007 0 0 1 2.824-2.995L5 5h5zm11-3a1 1 0 0 1 .993.883L22 3v6a1 1 0 0 1-1.993.117L20 9V5.414l-9.293 9.293a1 1 0 0 1-1.497-1.32l.083-.094L18.584 4H15a1 1 0 0 1-.993-.883L14 3a1 1 0 0 1 .883-.993L15 2h6z"/>
</svg>
