<svg xmlns="http://www.w3.org/2000/svg" width="24" height="24" viewBox="0 0 24 24">
  <path d="M9.34 3a1 1 0 0 1 .117 1.993L9.34 5H4a1 1 0 0 0-.993.883L3 6v14a1 1 0 0 0 .883.993L4 21h14a1 1 0 0 0 .993-.883L19 20v-5.34a1 1 0 0 1 1.993-.117l.007.117V20a3 3 0 0 1-2.824 2.995L18 23H4a3 3 0 0 1-2.995-2.824L1 20V6a3 3 0 0 1 2.824-2.995L4 3h5.34zm7.953-1.707a1 1 0 0 1 1.414 0l4 4a1 1 0 0 1 0 1.414l-10 10A1 1 0 0 1 12 17H8a1 1 0 0 1-1-1v-4a1 1 0 0 1 .293-.707zM18 3.415l-9 8.999V15h2.584l9.001-9L18 3.415z"/>
</svg>
