<svg xmlns="http://www.w3.org/2000/svg" width="24" height="24" viewBox="0 0 24 24">
  <path d="M12 3c3.38 0 6.339 1.632 8.855 4.316a20.492 20.492 0 0 1 2.927 4.022l.112.215a1 1 0 0 1 0 .894c-.109.219-.293.551-.55.968l-.238.378a20.492 20.492 0 0 1-2.251 2.89C18.339 19.369 15.38 21 12 21c-3.38 0-6.339-1.632-8.855-4.316a20.492 20.492 0 0 1-2.927-4.022l-.112-.215a1 1 0 0 1 0-.894c.109-.219.293-.551.55-.968l.238-.378a20.492 20.492 0 0 1 2.251-2.89C5.661 4.631 8.62 3 12 3zm0 2C9.255 5 6.776 6.368 4.605 8.684a18.513 18.513 0 0 0-2.31 3.056L2.14 12l.154.26.134.22.145.227c.575.89 1.254 1.781 2.03 2.61C6.777 17.631 9.255 19 12 19s5.224-1.368 7.395-3.684a18.513 18.513 0 0 0 2.31-3.056l.153-.26-.153-.26-.134-.22-.145-.227a18.513 18.513 0 0 0-2.03-2.61C17.223 6.369 14.745 5 12 5zm0 3a4 4 0 1 1 0 8 4 4 0 0 1 0-8zm0 2a2 2 0 1 0 0 4 2 2 0 0 0 0-4z"/>
</svg>
