<svg xmlns="http://www.w3.org/2000/svg" width="24" height="24" viewBox="0 0 24 24"><defs><style>.a{fill:#1a171b}</style></defs><title>chocolate-white-24-sandbox</title><path class="a" d="M7.5 20a1.68 1.68 0 0 0 1-.35 6.12 6.12 0 0 0 1.3-1.5 22.21 22.21 0 0 1 2-2.78 3.68 3.68 0 0 1 5.2-.56 9 9 0 0 1 1.91 3 5.69 5.69 0 0 0 1 1.46 2.25 2.25 0 0 0 1.64.7.5.5 0 0 0 0-1 1.2 1.2 0 0 1-.66-.18 3 3 0 0 1-.93-1.18 16.1 16.1 0 0 0-1.66-2.91 4.58 4.58 0 0 0-3.8-1.7 4.28 4.28 0 0 0-2.76 1.05 14.46 14.46 0 0 0-2.61 3.27 9.25 9.25 0 0 1-1 1.27 1.79 1.79 0 0 1-.39.32.57.57 0 0 1-.24.09.5.5 0 0 0 0 1z"/><path class="a" d="M4.5 20h17a.5.5 0 0 0 0-1h-17a.5.5 0 0 0 0 1"/><path class="a" d="M7 19.42L5.09 8h10.82L15 13.42a.5.5 0 0 0 1 .16l1-6a.5.5 0 0 0-.5-.58h-12a.5.5 0 0 0-.5.58l2 12a.5.5 0 0 0 1-.16z"/><path class="a" d="M13 7.36v.06a12 12 0 0 1-1.64 3.17 7.24 7.24 0 0 1-1.88 1.81 4.81 4.81 0 0 1-2.64.78 3.37 3.37 0 0 1-2.22-.59 1.66 1.66 0 0 1-.56-1.34 4.89 4.89 0 0 1 .86-2.48.5.5 0 0 0-.84-.54 5.85 5.85 0 0 0-1 3A2.67 2.67 0 0 0 4 13.36a4.33 4.33 0 0 0 2.86.83 5.85 5.85 0 0 0 3.35-1.05 9.63 9.63 0 0 0 2.89-3.45 12.37 12.37 0 0 0 .88-2 .5.5 0 0 0-1-.29z"/><path class="a" d="M17.5 5.5V5h-14a.5.5 0 0 0-.5.5v2a.5.5 0 0 0 .5.5h14a.5.5 0 0 0 .5-.5v-2a.5.5 0 0 0-.5-.5v.5H17V7H4V6h13.5v-.5z"/></svg>