<svg xmlns="http://www.w3.org/2000/svg" width="24" height="24" viewBox="0 0 24 24">
  <path d="M12 0a3 3 0 0 1 3 3v.086c.001.26.156.493.404.6a.647.647 0 0 0 .709-.123l.204-.195a3 3 0 0 1 4.1 4.38l-.052.051a.65.65 0 0 0-.13.717 1 1 0 0 1 .047.13l.012.06.045.062c.1.12.242.2.397.225L20.83 9H21a3 3 0 0 1 0 6h-.086a.654.654 0 0 0-.6.404.647.647 0 0 0 .123.709l.195.204a3 3 0 0 1-4.38 4.1l-.051-.052a.654.654 0 0 0-.727-.126.649.649 0 0 0-.394.591V21a3 3 0 0 1-6 0v-.067c-.006-.266-.175-.502-.484-.618a.647.647 0 0 0-.709.122l-.204.195a3 3 0 0 1-4.1-4.38l.052-.051a.654.654 0 0 0 .126-.727.649.649 0 0 0-.591-.394H3a3 3 0 0 1 0-6h.067c.266-.006.502-.175.618-.484a.647.647 0 0 0-.122-.709l-.195-.204a3 3 0 0 1 4.38-4.1l.051.052a.65.65 0 0 0 .717.13 1 1 0 0 1 .13-.047l.06-.013.062-.044c.12-.1.2-.242.225-.397L9 3.17V3a3 3 0 0 1 3-3zm0 2a1 1 0 0 0-1 1v.174a2.65 2.65 0 0 1-1.606 2.425A1 1 0 0 1 9 5.68l-.032.043a2.654 2.654 0 0 1-2.433-.537l-.142-.129-.06-.06a1 1 0 1 0-1.416 1.416l.068.068c.757.774.967 1.932.554 2.864l-.073.177A2.66 2.66 0 0 1 3.09 11.08H3a1 1 0 0 0 0 2h.174a2.646 2.646 0 0 1 2.42 1.596 2.654 2.654 0 0 1-.537 2.931l-.06.06a1 1 0 1 0 1.416 1.416l.068-.068c.774-.757 1.932-.967 2.864-.554l.177.073a2.66 2.66 0 0 1 1.558 2.376V21a1 1 0 0 0 2 0v-.174a2.646 2.646 0 0 1 1.596-2.42 2.654 2.654 0 0 1 2.931.537l.06.06a1 1 0 1 0 1.416-1.416l-.068-.068a2.646 2.646 0 0 1-.534-2.913A2.651 2.651 0 0 1 20.91 13H21a1 1 0 0 0 0-2h-.174a2.65 2.65 0 0 1-2.425-1.606A1 1 0 0 1 18.32 9l-.043-.032a2.654 2.654 0 0 1 .537-2.433l.129-.142.06-.06a1 1 0 1 0-1.416-1.416l-.068.068a2.646 2.646 0 0 1-2.913.534A2.651 2.651 0 0 1 13 3.09V3a1 1 0 0 0-1-1zm0 6a4 4 0 1 1 0 8 4 4 0 0 1 0-8zm0 2a2 2 0 1 0 0 4 2 2 0 0 0 0-4z"/>
</svg>
