<svg xmlns="http://www.w3.org/2000/svg" width="64" height="64" viewBox="0 0 64 64"><defs><style>.a{fill:#1a171b;}.b{fill:none;stroke:#1a171b;stroke-linecap:round;stroke-linejoin:round;stroke-width:3px;}</style></defs><title>Chocolate-White-organism</title><path class="a" d="M28,27a1,1,0,1,1-1,1,1,1,0,0,1,1-1m0-3a4,4,0,1,0,4,4,4,4,0,0,0-4-4Z"/><path class="a" d="M28,18a1,1,0,1,1-1,1,1,1,0,0,1,1-1m0-3a4,4,0,1,0,4,4,4,4,0,0,0-4-4Z"/><path class="a" d="M19,27a1,1,0,1,1-1,1,1,1,0,0,1,1-1m0-3a4,4,0,1,0,4,4,4,4,0,0,0-4-4Z"/><path class="a" d="M36,35a1,1,0,1,1-1,1,1,1,0,0,1,1-1m0-3a4,4,0,1,0,4,4,4,4,0,0,0-4-4Z"/><path class="a" d="M36,44a1,1,0,1,1-1,1,1,1,0,0,1,1-1m0-3a4,4,0,1,0,4,4,4,4,0,0,0-4-4Z"/><path class="a" d="M45,35a1,1,0,1,1-1,1,1,1,0,0,1,1-1m0-3a4,4,0,1,0,4,4,4,4,0,0,0-4-4Z"/><path class="a" d="M52,11a1,1,0,0,1,1,1V52a1,1,0,0,1-1,1H12a1,1,0,0,1-1-1V12a1,1,0,0,1,1-1H52m0-3H12a4,4,0,0,0-4,4V52a4,4,0,0,0,4,4H52a4,4,0,0,0,4-4V12a4,4,0,0,0-4-4Z"/><line class="b" x1="23" y1="28" x2="24" y2="28"/><line class="b" x1="28" y1="23" x2="28" y2="24"/><line class="b" x1="40" y1="36" x2="41" y2="36"/><line class="b" x1="36" y1="40" x2="36" y2="41"/></svg>