<svg xmlns="http://www.w3.org/2000/svg" width="64" height="64" viewBox="0 0 64 64"><defs><style>.a{fill:#1a171b;}</style></defs><title>Chocolate-White-atom</title><path class="a" d="M32,21A11,11,0,1,1,21,32,11,11,0,0,1,32,21m0-3A14,14,0,1,0,46,32,14,14,0,0,0,32,18Z"/><path class="a" d="M41,23h0m0,0h0m0,0h0m0,0h0m0,0h0m0,0h0m0,0h0m0,0h0m0-3a3,3,0,1,0,3,3,3,3,0,0,0-3-3Z"/><path class="a" d="M32,31a1,1,0,1,1-1,1,1,1,0,0,1,1-1m0-3a4,4,0,1,0,4,4,4,4,0,0,0-4-4Z"/><path class="a" d="M52,11a1,1,0,0,1,1,1V52a1,1,0,0,1-1,1H12a1,1,0,0,1-1-1V12a1,1,0,0,1,1-1H52m0-3H12a4,4,0,0,0-4,4V52a4,4,0,0,0,4,4H52a4,4,0,0,0,4-4V12a4,4,0,0,0-4-4Z"/></svg>