<svg xmlns="http://www.w3.org/2000/svg" width="24" height="24" viewBox="0 0 24 24"><defs><style>.a{fill:#1a171b}</style></defs><title>chocolate-white-24-document-list</title><path class="a" d="M18.5 20.5V20H6V4h12v16.5h1v-17a.5.5 0 0 0-.5-.5h-13a.5.5 0 0 0-.5.5v17a.5.5 0 0 0 .5.5h13a.5.5 0 0 0 .5-.5z"/><path class="a" d="M11.5 8h4a.5.5 0 0 0 0-1h-4a.5.5 0 0 0 0 1M11.5 11h4a.5.5 0 0 0 0-1h-4a.5.5 0 0 0 0 1M11.5 14h4a.5.5 0 0 0 0-1h-4a.5.5 0 0 0 0 1M11.5 17h4a.5.5 0 0 0 0-1h-4a.5.5 0 0 0 0 1M8.5 8h1a.5.5 0 1 0 0-1h-1a.5.5 0 0 0 0 1M8.5 11h1a.5.5 0 1 0 0-1h-1a.5.5 0 0 0 0 1M8.5 14h1a.5.5 0 1 0 0-1h-1a.5.5 0 0 0 0 1M8.5 17h1a.5.5 0 1 0 0-1h-1a.5.5 0 0 0 0 1"/></svg>