<svg xmlns="http://www.w3.org/2000/svg" width="24" height="24" viewBox="0 0 24 24"><defs><style>.a{fill:#1a171b}</style></defs><title>chocolate-white-24-email</title><path class="a" d="M20.5 18.5V18H3V5h17v13.5h1v-14a.5.5 0 0 0-.5-.5h-18a.5.5 0 0 0-.5.5v14a.5.5 0 0 0 .5.5h18a.5.5 0 0 0 .5-.5z"/><path class="a" d="M2 4.72l1.45 3 .1.14L9 13.22h.05a4.13 4.13 0 0 0 4.95 0h.05l5.35-5.37.1-.14 1.45-3a.5.5 0 0 0-.9-.44l-1.42 2.94-5.31 5.31.35.35-.3-.4a3.13 3.13 0 0 1-3.75 0l-.3.4.35-.35-5.3-5.31L3 4.28a.5.5 0 1 0-.9.44zM2.85 18.85l5-5a.5.5 0 1 0-.71-.71l-5 5a.5.5 0 0 0 .71.71M20.85 18.15l-5-5a.5.5 0 1 0-.71.71l5 5a.5.5 0 0 0 .71-.71"/></svg>