<svg xmlns="http://www.w3.org/2000/svg" width="24" height="24" viewBox="0 0 24 24"><defs><style>.a{fill:#1a171b}</style></defs><title>chocolate-white-24-paper-plane</title><path class="a" d="M19.34 5l-18 6a.5.5 0 0 0-.14.87L5 14.78l1 5.8a.5.5 0 0 0 1 .1l2-4.89 9.5-8.64-3.24 9.73L8.64 15a.5.5 0 0 0-.6.3l-2 5a.5.5 0 1 0 .93.37L8.8 16.1l6.56 1.9a.5.5 0 0 0 .61-.32l4-12a.5.5 0 0 0-.81-.53l-11 10-.16.16-1.3 3.35-.7-4.24a.5.5 0 0 0-.19-.32l-3.25-2.43L19.66 6a.5.5 0 0 0-.32-1z"/><path class="a" d="M5.77 14.92l14-9a.5.5 0 0 0-.54-.84l-14 9a.5.5 0 0 0 .54.84M6.85 20.85l4-4a.5.5 0 0 0-.71-.71l-4 4a.5.5 0 0 0 .71.71"/></svg>