<svg xmlns="http://www.w3.org/2000/svg" width="24" height="24" viewBox="0 0 24 24"><defs><style>.a{fill:#1a171b}</style></defs><title>chocolate-white-24-tools</title><path class="a" d="M21.35 17.65l-4.5-4.5a.5.5 0 0 0-.35-.15h-.79l-1-1a.49.49 0 0 0 .18-.11l1.73-1.73a3.54 3.54 0 0 0 1.59.43 2.33 2.33 0 0 0 1.68-.7 8.29 8.29 0 0 0 1.58-2.63A15.69 15.69 0 0 0 22 5.63a.5.5 0 0 0-.76-.55l-2.68 1.78-1.42-1.42 1.77-2.66a.5.5 0 0 0-.54-.78 15.69 15.69 0 0 0-1.59.55 8.29 8.29 0 0 0-2.63 1.58 2.69 2.69 0 0 0-.77 2 4.38 4.38 0 0 0 .29 1.5l-1.53 1.52a.49.49 0 0 0-.11.18L8.91 6.2l-1-1.93A.5.5 0 0 0 7.66 4l-3-1a.5.5 0 0 0-.51.12l-1 1a.5.5 0 0 0-.15.54l1 3a.5.5 0 0 0 .25.29l1.93 1L9.33 12a.49.49 0 0 0-.15.08l-6 5a3 3 0 0 0-.41.54 2.69 2.69 0 0 0-.4 1.37 2.51 2.51 0 0 0 .81 1.8 2.51 2.51 0 0 0 1.8.81 2.69 2.69 0 0 0 1.37-.4 3 3 0 0 0 .54-.41l5-6a.49.49 0 0 0 .08-.15l1 1v.79a.5.5 0 0 0 .15.35l4.5 4.5.22.13a4 4 0 0 0 1 .12 2.57 2.57 0 0 0 2.76-2.76 4 4 0 0 0-.12-1zm-8.5-7.8l1.75-1.79a.5.5 0 0 0 .09-.58 3.51 3.51 0 0 1-.32-1.38 1.69 1.69 0 0 1 .48-1.25 7.42 7.42 0 0 1 2.3-1.36h.11l-1.18 1.73a.5.5 0 0 0 .06.63l2 2a.5.5 0 0 0 .63.06l1.77-1.18-.17.42a6.81 6.81 0 0 1-1.23 2 1.31 1.31 0 0 1-1 .41 2.42 2.42 0 0 1-1-.23l-.32-.16-.08-.05a.5.5 0 0 0-.64.05l-2 2a.49.49 0 0 0-.11.18L12.67 10a.49.49 0 0 0 .19-.15zm-1.74 4.33l-5 6a2 2 0 0 1-1.19.51 1.51 1.51 0 0 1-1.09-.52 1.51 1.51 0 0 1-.52-1.09 1.7 1.7 0 0 1 .26-.85 2.32 2.32 0 0 1 .19-.27l.06-.07 6-5a.49.49 0 0 0 .14-.21L11.33 14a.49.49 0 0 0-.21.18zm-4.26-6l-.13-.09-1.81-.94-.84-2.51.56-.56 2.51.84.91 1.81.09.13 7 7 .09.06-1.32 1.32a.49.49 0 0 0-.06-.09zm13.29 12a1.81 1.81 0 0 1-1.3.45 3.18 3.18 0 0 1-.52 0h-.07l-4.11-4.11 2.29-2.29 4.11 4.11a3.15 3.15 0 0 1 .06.59 1.81 1.81 0 0 1-.45 1.22z"/></svg>