<svg xmlns="http://www.w3.org/2000/svg" xmlns:xlink="http://www.w3.org/1999/xlink" width="64" height="64" viewBox="0 0 64 64"><defs><style>.a,.c{fill:none;}.b{clip-path:url(#a);}.c{stroke:#1a171b;stroke-linecap:round;stroke-linejoin:round;stroke-width:3px;}.d{fill:#1a171b;}</style><clipPath id="a"><circle class="a" cx="32" cy="-52" r="28"/></clipPath></defs><title>Chocolate-White-molecule</title><g class="b"><path class="c" d="M-18,6A50,50,0,0,1,82,6"/></g><path class="d" d="M23,18a5,5,0,1,1-5,5,5,5,0,0,1,5-5m0-3a8,8,0,1,0,8,8,8,8,0,0,0-8-8Z"/><path class="d" d="M23,20.5A2.5,2.5,0,1,0,25.5,23,2.5,2.5,0,0,0,23,20.5Z"/><path class="d" d="M23,36a5,5,0,1,1-5,5,5,5,0,0,1,5-5m0-3a8,8,0,1,0,8,8,8,8,0,0,0-8-8Z"/><path class="d" d="M23,38.5A2.5,2.5,0,1,0,25.5,41,2.5,2.5,0,0,0,23,38.5Z"/><path class="d" d="M41,18a5,5,0,1,1-5,5,5,5,0,0,1,5-5m0-3a8,8,0,1,0,8,8,8,8,0,0,0-8-8Z"/><path class="d" d="M41,20.5A2.5,2.5,0,1,0,43.5,23,2.5,2.5,0,0,0,41,20.5Z"/><path class="d" d="M52,11a1,1,0,0,1,1,1V52a1,1,0,0,1-1,1H12a1,1,0,0,1-1-1V12a1,1,0,0,1,1-1H52m0-3H12a4,4,0,0,0-4,4V52a4,4,0,0,0,4,4H52a4,4,0,0,0,4-4V12a4,4,0,0,0-4-4Z"/><line class="c" x1="31" y1="23" x2="33" y2="23"/><line class="c" x1="23" y1="31" x2="23" y2="33"/></svg>