<svg xmlns="http://www.w3.org/2000/svg" width="64" height="64" viewBox="0 0 64 64"><defs><style>.a{fill:#1a171b;}.b{fill:none;stroke:#1a171b;stroke-linecap:round;stroke-linejoin:round;stroke-width:3px;}</style></defs><title>Chocolate-White-page</title><path class="a" d="M52,11a1,1,0,0,1,1,1V52a1,1,0,0,1-1,1H12a1,1,0,0,1-1-1V12a1,1,0,0,1,1-1H52m0-3H12a4,4,0,0,0-4,4V52a4,4,0,0,0,4,4H52a4,4,0,0,0,4-4V12a4,4,0,0,0-4-4Z"/><polygon class="b" points="43 48 21 48 21 16 35 16 43 24 43 48"/><polyline class="b" points="35 16 35 24 43 24"/></svg>