<svg xmlns="http://www.w3.org/2000/svg" xmlns:xlink="http://www.w3.org/1999/xlink" viewBox="45 45 310 310" style="width:60vw;max-width:300px;margin:2rem auto;display:block;"><style>.cls-1{fill:#232544;}.cls-2{fill:#ed1e79;}.cls-3{fill:url(#linear-gradient);}.cls-4{fill:#f7931e;}.cls-5{fill:url(#linear-gradient-2);}.cls-6{fill:url(#linear-gradient-3);}.contentheader,h1#uiengine{display:none !important;}</style><linearGradient id="linear-gradient" x1="242.66" y1="80.99" x2="161.79" y2="254.41" gradientUnits="userSpaceOnUse"><stop offset="0.24" stop-color="#ed1e79"/><stop offset="0.59" stop-color="#8f2160"/><stop offset="0.91" stop-color="#232544"/></linearGradient><linearGradient id="linear-gradient-2" x1="303.86" y1="86.63" x2="215" y2="102.3" gradientUnits="userSpaceOnUse"><stop offset="0.3" stop-color="#ff0046"/><stop offset="0.39" stop-color="#ff0046"/><stop offset="0.91" stop-color="#f7931e"/></linearGradient><linearGradient id="linear-gradient-3" x1="252.09" y1="101.34" x2="193.6" y2="171.05" gradientUnits="userSpaceOnUse"><stop offset="0.16" stop-color="#ff0046"/><stop offset="1" stop-color="#c91fc9"/></linearGradient><title>UIengine</title><g id="Layer_3" data-name="Layer 3"><path class="cls-1" d="M74.89,289l10.46-5.63v30.58c0,10.38-7.29,18.23-18.39,18.23-11.42,0-18.15-7.53-18.15-18.23V289l10.46-5.63v30.89c0,2.3.79,7.77,7.69,7.77a7.58,7.58,0,0,0,7.93-7.77Zm18.63,42.23H104V283.36L93.52,289Zm57.6-24.73-28.86,12.12A10.64,10.64,0,0,0,131,323a9.58,9.58,0,0,0,8.64-4.75H150.8c-2.37,8.32-9.59,13.95-19.74,13.95a21.09,21.09,0,0,1-20.92-21.32c0-11.82,9.35-21.49,20.92-21.49C140.89,289.36,149.14,295.55,151.12,306.49Zm-12.05-4.28a10.27,10.27,0,0,0-8.08-3.65c-6,0-10.86,4.75-11.1,11.73Zm35.86-12.85c-11.1,0-18.39,7.85-18.39,18.24v23.62H167V307.36a7.54,7.54,0,0,1,7.93-7.77c6.89,0,7.69,5.47,7.69,7.77v23.86h10.46V307.6C193.08,296.89,186.34,289.36,174.93,289.36Zm65.77,21.49v18.31c0,13.55-8.09,22-21.17,22-9.83,0-18.23-5.62-19.81-14.26h11.41c1.35,3.25,5.55,4.51,8.4,4.51,7.38,0,10.71-4.83,10.71-12.12v-1.83a16.83,16.83,0,0,1-11.9,4.6c-10.78,0-19.58-9.51-19.58-21.24s8.65-21.49,21-21.49S240.7,299,240.7,310.85Zm-10.46.08c0-6.5-4.68-11.74-10.47-11.74s-10.46,5-10.46,11.74c0,6.5,4.67,11.49,10.46,11.49S230.24,317.27,230.24,310.93Zm18.43,20.29h10.47V287.58l-10.47,5.63Zm37.06-41.86c-11.1,0-18.4,7.85-18.4,18.24v23.62H277.8V307.36a7.54,7.54,0,0,1,7.93-7.77c6.89,0,7.68,5.47,7.68,7.77v23.86h10.47V307.6C303.88,296.89,297.14,289.36,285.73,289.36Zm53.32,28.86h11.18c-2.38,8.32-9.59,13.95-19.74,13.95a21.1,21.1,0,0,1-20.93-21.32c0-11.82,9.36-21.49,20.93-21.49,9.83,0,18.07,6.19,20.06,17.13l-28.86,12.12a10.61,10.61,0,0,0,8.72,4.36A9.56,9.56,0,0,0,339.05,318.22Zm-19.74-7.93,19.19-8.08a10.29,10.29,0,0,0-8.09-3.65C324.39,298.56,319.55,303.31,319.31,310.29Z"/><circle class="cls-2" cx="110.78" cy="109.28" r="5.86"/><circle class="cls-2" cx="121.87" cy="93.19" r="8.59"/><circle class="cls-2" cx="138.82" cy="79.99" r="6.97"/><path class="cls-3" d="M291.23,132.66a95.76,95.76,0,1,1-19.14-30.27c0,.73-.14,1.46-.26,2.19a22.54,22.54,0,0,1-1.57,5.26,64.63,64.63,0,1,0,13,28.37A49,49,0,0,0,291.23,132.66Zm-133.87,89.1a7.57,7.57,0,1,0-4.54,9.7A7.56,7.56,0,0,0,157.36,221.76Zm23.24,12.36a9.34,9.34,0,1,0-5.6,12A9.35,9.35,0,0,0,180.6,234.12Zm22.79,6.82a7.58,7.58,0,1,0-4.54,9.71A7.57,7.57,0,0,0,203.39,240.94Z"/><circle class="cls-4" cx="224.98" cy="144" r="6.17"/><path class="cls-5" d="M251.21,139.71a45.77,45.77,0,1,0-30-71.24,100.39,100.39,0,0,1,21.94,6.88,26.45,26.45,0,1,1,6.81,52,26.3,26.3,0,0,1-25.34-18.81,22.62,22.62,0,0,0-7.73,4.39,45.73,45.73,0,0,0,34.34,26.77Zm8-76.31A6.22,6.22,0,0,1,253,68.59a7.26,7.26,0,0,1-1-.08,6.22,6.22,0,1,1,7.16-5.11ZM288,80.58a5.26,5.26,0,0,1,.78.07A4.71,4.71,0,0,1,288,90a5.27,5.27,0,0,1-.79-.07,4.71,4.71,0,0,1,.78-9.36Zm-13-4.07a8.57,8.57,0,0,1-1.41-.12A8.44,8.44,0,0,1,275,59.63a8.57,8.57,0,0,1,1.41.12A8.44,8.44,0,0,1,275,76.51Z"/><path class="cls-6" d="M258.83,144.57c-1.29,0-2.59-.06-3.89-.16a27.1,27.1,0,1,1,2.64-22.62,22.07,22.07,0,0,0,6.85-4,45.49,45.49,0,1,0,3.27,26A50,50,0,0,1,258.83,144.57Z"/></g></svg>
