<svg xmlns="http://www.w3.org/2000/svg" width="24" height="24" viewBox="0 0 24 24"><defs><style>.a{fill:#1a171b}</style></defs><title>chocolate-white-24-atomic-organism</title><path class="a" d="M3.5 6H4a2 2 0 1 1 2 2 2 2 0 0 1-2-2H3a3 3 0 1 0 3-3 3 3 0 0 0-3 3z"/><path class="a" d="M8.5 6H9a2 2 0 1 1 2 2 2 2 0 0 1-2-2H8a3 3 0 1 0 3-3 3 3 0 0 0-3 3zM3.5 11H4a2 2 0 1 1 2 2 2 2 0 0 1-2-2H3a3 3 0 1 0 3-3 3 3 0 0 0-3 3zM10.5 13h.5a2 2 0 1 1 2 2 2 2 0 0 1-2-2h-1a3 3 0 1 0 3-3 3 3 0 0 0-3 3z"/><path class="a" d="M15.5 13h.5a2 2 0 1 1 2 2 2 2 0 0 1-2-2h-1a3 3 0 1 0 3-3 3 3 0 0 0-3 3zM10.5 18h.5a2 2 0 1 1 2 2 2 2 0 0 1-2-2h-1a3 3 0 1 0 3-3 3 3 0 0 0-3 3z"/></svg>