<svg xmlns="http://www.w3.org/2000/svg" width="24" height="24" viewBox="0 0 24 24"><title>chocolate-white-24-copy-URL</title><path d="M19.85 3.15A.5.5 0 0 0 19.5 3H18v-.5a.5.5 0 0 0-.5-.5h-11a.5.5 0 0 0-.5.5V3H4.5a.5.5 0 0 0-.5.5v17a.5.5 0 0 0 .5.5h15a.5.5 0 0 0 .5-.5v-17a.5.5 0 0 0-.15-.35zM7 3h10v2H7zm12 17H5V4h1v1.5a.5.5 0 0 0 .5.5h11a.5.5 0 0 0 .5-.5V4h1zM12 7a6 6 0 0 0 0 12 6 6 0 0 0 0-12zm4 3a8.41 8.41 0 0 1-1.08.42A10.42 10.42 0 0 0 14 8.9c-.19-.25-.37-.47-.55-.68a5 5 0 0 1 2.13 1.24A5.06 5.06 0 0 1 16 10zm1 3a5 5 0 0 1-.45 2 8.33 8.33 0 0 0-1.19-.58 5.07 5.07 0 0 0 .25-1.42 5.14 5.14 0 0 0-.28-1.61 9.1 9.1 0 0 0 1.2-.49A5 5 0 0 1 17 13zM7 13a5 5 0 0 1 .47-2.09 9.1 9.1 0 0 0 1.2.49 5.14 5.14 0 0 0-.28 1.6 5.07 5.07 0 0 0 .24 1.47 8.33 8.33 0 0 0-1.18.53A5 5 0 0 1 7 13zm2.39 0a4 4 0 0 1 .25-1.34 10.75 10.75 0 0 0 1.86.24v1.94a9.15 9.15 0 0 0-1.92.31A3.88 3.88 0 0 1 9.39 13zm3.11-4.28a11.6 11.6 0 0 1 .79 1 8.9 8.9 0 0 1 .65 1 9.74 9.74 0 0 1-1.45.18zm-1 0v2.18a9.85 9.85 0 0 1-1.45-.17 9.18 9.18 0 0 1 .79-1.23c.23-.3.45-.55.66-.78zm0 6.13v2.44a11.6 11.6 0 0 1-.79-1 8.7 8.7 0 0 1-.71-1.21 8.07 8.07 0 0 1 1.5-.24zm1 2.44v-2.44a8.14 8.14 0 0 1 1.54.24 9 9 0 0 1-.89 1.41c-.22.3-.44.55-.65.78zm0-3.44V11.9a10.74 10.74 0 0 0 1.86-.24 4 4 0 0 1 .25 1.34 3.87 3.87 0 0 1-.19 1.15 9.15 9.15 0 0 0-1.92-.3zm-1.9-5.63c-.18.2-.36.43-.55.68a10.42 10.42 0 0 0-1 1.57l-.33-.11A7.4 7.4 0 0 1 8 10a5.05 5.05 0 0 1 .48-.58 5 5 0 0 1 2.12-1.2zm-2.65 7.69a7.24 7.24 0 0 1 1-.51A10.18 10.18 0 0 0 10 17.1c.19.25.37.47.55.68a5 5 0 0 1-2.13-1.24 5.06 5.06 0 0 1-.47-.63zm5.45 1.87c.18-.2.36-.43.55-.68a10.19 10.19 0 0 0 1-1.7l.24.09a6.76 6.76 0 0 1 .81.42 5.05 5.05 0 0 1-.52.62 5 5 0 0 1-2.08 1.25z"/></svg>