<svg xmlns="http://www.w3.org/2000/svg" width="24" height="24" viewBox="0 0 24 24"><defs><style>.a{fill:#1a171b}</style></defs><title>chocolate-white-24-open-in-window</title><path class="a" d="M6.5 20h13a.5.5 0 0 0 .5-.5v-16a.5.5 0 0 0-.5-.5h-16a.5.5 0 0 0-.5.5v9a.5.5 0 0 0 1 0V4h15v15H6.5a.5.5 0 0 0 0 1z"/><path class="a" d="M10.15 9.85l2.65 2.65-2.65 2.65a.5.5 0 0 0 .71.71l3-3a.5.5 0 0 0 0-.71l-3-3a.5.5 0 1 0-.71.71z"/><path class="a" d="M12.5 12c-3.07 0-5.43.66-7.06 2A6.76 6.76 0 0 0 3 19.5a.5.5 0 0 0 1 0 5.75 5.75 0 0 1 2.06-4.77C7.43 13.63 9.57 13 12.5 13a.5.5 0 0 0 0-1zM3.5 7h16a.5.5 0 0 0 0-1h-16a.5.5 0 0 0 0 1"/><circle class="a" cx="5" cy="5" r=".5"/><circle class="a" cx="7" cy="5" r=".5"/><circle class="a" cx="9" cy="5" r=".5"/></svg>