<svg xmlns="http://www.w3.org/2000/svg" width="64" height="64" viewBox="0 0 64 64"><defs><style>.a{fill:#1a171b;}</style></defs><title>Chocolate-White-atom</title><path class="a" d="M32,19A13,13,0,1,1,19,32,13,13,0,0,1,32,19m0-1A14,14,0,1,0,46,32,14,14,0,0,0,32,18Z"/><path class="a" d="M41.5,21A1.5,1.5,0,1,1,40,22.5,1.5,1.5,0,0,1,41.5,21m0-1A2.5,2.5,0,1,0,44,22.5,2.5,2.5,0,0,0,41.5,20Z"/><path class="a" d="M32,29a3,3,0,1,1-3,3,3,3,0,0,1,3-3m0-1a4,4,0,1,0,4,4,4,4,0,0,0-4-4Z"/><path class="a" d="M52,9a3,3,0,0,1,3,3V52a3,3,0,0,1-3,3H12a3,3,0,0,1-3-3V12a3,3,0,0,1,3-3H52m0-1H12a4,4,0,0,0-4,4V52a4,4,0,0,0,4,4H52a4,4,0,0,0,4-4V12a4,4,0,0,0-4-4Z"/></svg>